<svg xmlns="http://www.w3.org/2000/svg" fill="none" viewBox="0 0 36 36">
  <path fill="#FFA000"
    d="m6 28 4.06-26.356a.747.747 0 0 1 1.402-.243l4.2 7.946 1.675-3.232a.747.747 0 0 1 1.329 0L30 28H6Z" />
  <path fill="#F57C00" d="M20 18.095 15.642 10 6 28l14-9.905Z" />
  <path fill="#FFCA28"
    d="M30 28.445 26.889 8.643a.767.767 0 0 0-.511-.606.733.733 0 0 0-.758.189L6 28.444l10.855 6.263a2.195 2.195 0 0 0 2.192 0L30 28.445Z" />
  <path fill="#fff" fill-opacity=".2"
    d="M26.892 8.46a.757.757 0 0 0-.51-.596.741.741 0 0 0-.758.186L21.732 12l-3.06-5.898a.746.746 0 0 0-1.329 0L15.67 9.326 11.473 1.4a.746.746 0 0 0-1.402.242L6.013 27.93H6l.013.015.105.054L25.617 8.244a.745.745 0 0 1 1.27.41l3.083 19.295.03-.018L26.892 8.46ZM6.048 27.896 10.07 1.83a.75.75 0 0 1 .614-.631.751.751 0 0 1 .788.39l4.197 7.924 1.673-3.224a.746.746 0 0 1 1.329 0l3 5.77L6.047 27.897Z" />
  <path fill="#A52714"
    d="M19.049 34.499a2.124 2.124 0 0 1-2.193 0l-10.83-6.49-.026.177 10.856 6.51a2.124 2.124 0 0 0 2.193 0L30 28.185 29.972 28 19.05 34.499Z"
    opacity=".2" />
</svg>