<svg xmlns="http://www.w3.org/2000/svg" xml:space="preserve" style="enable-background:new 0 0 500 500" viewBox="0 0 500 500">
  <path d="M0 0h500v500H0z" style="fill:#f7df1e"/>
  <path d="M335.504 390.725c10.062 16.43 23.154 28.506 46.308 28.506 19.451 0 31.876-9.721 31.876-23.154 0-16.097-12.766-21.798-34.176-31.163l-11.736-5.035c-33.874-14.432-56.378-32.511-56.378-70.73 0-35.207 26.825-62.008 68.748-62.008 29.846 0 51.303 10.388 66.766 37.585l-36.555 23.471c-8.048-14.432-16.731-20.117-30.211-20.117-13.75 0-22.464 8.722-22.464 20.117 0 14.083 8.722 19.784 28.863 28.506l11.736 5.027c39.885 17.104 62.405 34.541 62.405 73.744 0 42.264-33.2 65.418-77.788 65.418-43.596 0-71.761-20.775-85.543-48.005l38.149-22.162zm-165.827 4.067c7.374 13.084 14.083 24.145 30.211 24.145 15.423 0 25.152-6.034 25.152-29.497V229.821h46.942v160.254c0 48.607-28.498 70.73-70.096 70.73-37.585 0-59.352-19.451-70.421-42.878l38.212-23.135z"/>
</svg>