<svg xmlns="http://www.w3.org/2000/svg" fill="none" viewBox="0 0 36 36">
  <path fill="#fff"
    d="M18 32.44c7.909 0 14.32-6.411 14.32-14.32C32.32 10.211 25.91 3.8 18 3.8c-7.909 0-14.32 6.411-14.32 14.32 0 7.909 6.411 14.32 14.32 14.32Z" />
  <path fill="#169CEE"
    d="M20.667 21.893H12.8c-1.147 0-1.813.707-1.813 1.72 0 .907.613 1.547 1.493 1.547 1.027 0 1.613-.707 1.667-1.72h2.28c-.12 2.48-1.667 3.8-3.974 3.8-2.16 0-3.773-1.467-3.773-3.653 0-2.28 1.693-3.867 4.24-3.867h7.787c2.626 0 4.626-1.933 4.626-4.533 0-2.627-1.786-4.48-4.333-4.48-2.52 0-4.56 1.84-4.56 5.24v2.226h-2.307v-2.226c0-4.507 2.894-7.427 6.907-7.427 3.827 0 6.613 2.747 6.613 6.64.027 3.893-2.96 6.733-6.986 6.733ZM18 34c8.947 0 16-7.08 16-16S26.947 2 18 2 2 9.107 2 18c0 8.92 7.053 16 16 16Z" />
</svg>