<svg xmlns="http://www.w3.org/2000/svg" fill="none" viewBox="0 0 36 36">
  <path fill="#FF6D21" fill-rule="evenodd"
    d="M10.327 5.218 3.012 9.422l-.006 4.623L3 18.667l3.512 1.928 3.513 1.929v7.99l3.993 2.243L18.012 35l2.276-1.289c1.252-.709 4.596-2.627 7.433-4.264l5.156-2.975.061-8.462L33 9.548l-.882-.56C30.569 8.002 18.01.985 17.823 1c-.1.008-3.473 1.906-7.496 4.218Zm13.175 3.245 5.39 3.06v12.855l-5.385 3.096c-2.962 1.703-5.44 3.095-5.508 3.095-.067-.001-1.019-.507-2.115-1.125l-1.992-1.124-.069-1.764c-.037-.97.005-1.764.095-1.764s.985.468 1.99 1.04c1.007.572 1.941 1.04 2.079 1.04.137 0 1.99-1.001 4.117-2.225l3.868-2.225-.063-4.506-.063-4.507-3.832-2.167c-2.107-1.191-3.953-2.166-4.102-2.164-.148 0-1.957.975-4.02 2.164l-3.75 2.163-.067 2.359c-.037 1.297-.142 2.325-.235 2.284-.092-.04-.825-.438-1.629-.883l-1.462-.81-.003-2.319-.003-2.32 5.45-3.156c2.997-1.736 5.555-3.156 5.684-3.156.128 0 2.66 1.376 5.625 3.059Zm-3.43 6.069 1.906 1.064v4.742l-1.87 1.071c-1.028.59-1.99 1.072-2.136 1.072-.147 0-1.153-.495-2.237-1.098l-1.97-1.098.064-2.299.063-2.298 1.875-1.11c1.031-.61 1.993-1.11 2.137-1.11.145-.001 1.12.478 2.168 1.064Z"
    clip-rule="evenodd" />
</svg>