<svg xmlns="http://www.w3.org/2000/svg" xml:space="preserve" style="enable-background:new 0 0 494.538 500"
	viewBox="0 0 494.538 500">
	<linearGradient id="a" x1="6.637" x2="491.633" y1="457.09" y2="39.816"
		gradientTransform="matrix(.5625 0 0 -.568 -15.866 273.852)" gradientUnits="userSpaceOnUse">
		<stop offset="0" style="stop-color:#5a9fd4" />
		<stop offset="1" style="stop-color:#306998" />
	</linearGradient>
	<path
		d="M244.325.004c-20.392.095-39.866 1.834-57.001 4.866-50.477 8.918-59.642 27.583-59.642 62.006v45.462h119.284v15.154H82.915c-34.667 0-65.023 20.837-74.518 60.476-10.952 45.436-11.438 73.788 0 121.231 8.479 35.314 28.729 60.476 63.396 60.476h41.013v-54.498c0-39.372 34.065-74.101 74.518-74.101h119.145c33.166 0 59.642-27.308 59.642-60.615V66.876c0-32.327-27.271-56.61-59.642-62.006-20.491-3.411-41.753-4.961-62.144-4.866zm-64.509 36.564c12.321 0 22.383 10.226 22.383 22.8 0 12.529-10.062 22.661-22.383 22.661-12.365 0-22.383-10.132-22.383-22.661 0-12.574 10.018-22.8 22.383-22.8z"
		style="fill:url(#a)" />
	<linearGradient id="b" x1="679.135" x2="505.944" y1="-212.735" y2="32.301"
		gradientTransform="matrix(.5625 0 0 -.568 -15.866 273.852)" gradientUnits="userSpaceOnUse">
		<stop offset="0" style="stop-color:#ffd43b" />
		<stop offset="1" style="stop-color:#ffe873" />
	</linearGradient>
	<path
		d="M380.987 127.491v52.969c0 41.066-34.816 75.63-74.518 75.63H187.324c-32.636 0-59.642 27.932-59.642 60.615V430.29c0 32.327 28.11 51.341 59.642 60.615 37.759 11.103 73.967 13.109 119.145 0 30.03-8.695 59.642-26.193 59.642-60.615v-45.462H246.966v-15.154h178.787c34.667 0 47.586-24.181 59.642-60.476 12.454-37.365 11.924-73.298 0-121.231-8.567-34.512-24.931-60.476-59.642-60.476h-44.766zm-67.01 287.645c12.365 0 22.383 10.132 22.383 22.661 0 12.574-10.018 22.8-22.383 22.8-12.321 0-22.383-10.226-22.383-22.8-.001-12.529 10.061-22.661 22.383-22.661z"
		style="fill:url(#b)" />
</svg>