<svg xmlns="http://www.w3.org/2000/svg" xml:space="preserve" style="enable-background:new 0 0 500 445.712"
	viewBox="0 0 500 445.712">
	<circle cx="250" cy="222.759" r="44.565" style="fill:#61dafb" />
	<path
		d="M250 324.937c-140.19 0-250-44.879-250-102.178s109.81-102.178 250-102.178c140.179 0 250 44.879 250 102.178S390.179 324.937 250 324.937zm0-182.617c-134.521 0-228.261 42.396-228.261 80.439s93.74 80.439 228.261 80.439c134.511 0 228.261-42.396 228.261-80.439S384.511 142.32 250 142.32z"
		style="fill:#61dafb" />
	<path
		d="M349.8 445.712c-22.142 0-48.934-12.165-78.019-35.793-38.521-31.314-77.679-79.632-110.267-136.082-32.577-56.428-54.847-114.502-62.702-163.521C90.396 57.815 99.694 20.854 125 6.249c49.656-28.564 143.395 44.02 213.485 165.421 70.1 121.402 86.129 238.95 36.515 267.589-7.473 4.309-15.922 6.453-25.2 6.453zM150.136 21.608c-5.435 0-10.233 1.136-14.266 3.471-16.697 9.638-22.376 39.455-15.593 81.798 7.441 46.461 28.777 101.902 60.069 156.091 31.292 54.199 68.635 100.395 105.15 130.074 33.267 27.047 61.991 37.046 78.635 27.407 32.948-19.043 22.779-121.412-44.455-237.91-59.04-102.22-130.626-160.931-169.54-160.931z"
		style="fill:#61dafb" />
	<path
		d="M150.2 445.712c-9.277 0-17.737-2.123-25.2-6.454-49.614-28.638-33.575-146.187 36.515-267.588C231.605 50.3 325.301-22.454 375 6.249c25.306 14.606 34.604 51.567 26.197 104.068-7.855 49.019-30.125 107.093-62.712 163.521-32.587 56.45-71.745 104.768-110.267 136.082-29.084 23.628-55.876 35.792-78.018 35.792zM349.864 21.608c-38.914 0-110.5 58.711-169.519 160.931-67.255 116.498-77.424 218.867-44.476 237.91 16.708 9.596 45.357-.361 78.645-27.407 36.515-29.679 73.847-75.875 105.161-130.074 31.271-54.189 52.607-109.63 60.059-156.091 6.772-42.342 1.083-72.159-15.604-81.798-4.033-2.335-8.831-3.471-14.266-3.471z"
		style="fill:#61dafb" />
</svg>