<svg xmlns="http://www.w3.org/2000/svg" xml:space="preserve" style="enable-background:new 0 0 500 500"
	viewBox="0 0 500 500">
	<path
		d="M48.669.447h401.594C477.18.447 499 22.288 499 49.231v401.984C499 478.158 477.18 500 450.263 500H48.669C21.752 500-.068 478.158-.068 451.215V49.231C-.069 22.288 21.752.447 48.669.447z"
		style="fill:#3178c6" />
	<path d="M0 0h500v500H0z" style="fill:#3178c6" />
	<path
		d="M308.866 397.966v48.844c7.932 4.071 17.314 7.123 28.146 9.158 10.831 2.035 22.247 3.053 34.248 3.053 11.696 0 22.806-1.119 33.332-3.358 10.526-2.238 19.756-5.927 27.689-11.066 7.932-5.138 14.213-11.855 18.84-20.148 4.627-8.293 6.941-18.545 6.941-30.756 0-8.853-1.322-16.612-3.966-23.277-2.644-6.665-6.458-12.592-11.442-17.782-4.983-5.19-10.958-9.846-17.925-13.967s-14.823-8.013-23.569-11.676c-6.407-2.646-12.153-5.215-17.238-7.708-5.085-2.494-9.407-5.037-12.967-7.632-3.56-2.595-6.306-5.343-8.238-8.243-1.932-2.901-2.899-6.182-2.899-9.846 0-3.357.865-6.385 2.594-9.082s4.17-5.011 7.322-6.945c3.153-1.933 7.017-3.434 11.594-4.503 4.577-1.068 9.662-1.602 15.256-1.602 4.068 0 8.364.305 12.89.915 4.526.611 9.077 1.552 13.654 2.824a94.95 94.95 0 0 1 13.348 4.808c4.322 1.934 8.314 4.172 11.975 6.717v-45.639c-7.424-2.849-15.534-4.96-24.332-6.334s-18.892-2.061-30.281-2.061c-11.595 0-22.578 1.247-32.951 3.74-10.373 2.493-19.501 6.385-27.383 11.676-7.882 5.292-14.11 12.033-18.687 20.225-4.576 8.191-6.865 17.985-6.865 29.382 0 14.551 4.195 26.966 12.586 37.244 8.39 10.277 21.128 18.977 38.214 26.101 6.712 2.748 12.967 5.443 18.764 8.089s10.806 5.394 15.026 8.243c4.221 2.849 7.551 5.953 9.993 9.311 2.441 3.357 3.661 7.173 3.661 11.448 0 3.154-.763 6.08-2.289 8.776s-3.84 5.036-6.941 7.021c-3.102 1.985-6.967 3.536-11.594 4.655-4.628 1.12-10.043 1.679-16.247 1.679-10.577 0-21.052-1.857-31.426-5.571-10.375-3.713-19.986-9.284-28.833-16.713zm-82.034-120.343h62.598V237.54H114.951v40.083h62.292v178.471h49.589V277.623z"
		style="fill-rule:evenodd;clip-rule:evenodd;fill:#fff" />
</svg>