<svg width="221" height="177" viewBox="0 0 221 177" fill="none" xmlns="http://www.w3.org/2000/svg">
<path d="M212.225 37.5638C202.46 16.9591 182.548 2.69627 160.102 1.00931C149.103 -0.0110519 137.752 1.84721 127.841 6.84849C121.185 10.1554 115.255 14.7359 110.276 20.1989C100 8.5429 85.4799 0.916216 69.8155 0.126735C36.8782 -1.85069 8.49211 19.4765 1.57198 52.5825C-2.62835 72.4089 1.95217 93.1142 11.0511 110.553C20.1353 127.758 33.3943 143.053 50.638 152.042C62.6723 157.9 73.9536 143.038 65.1545 132.648C62.3506 129.505 59.7625 126.161 57.4082 122.589C55.2185 119.279 53.2481 115.797 51.4678 112.237C46.5108 102.074 42.8076 90.6303 42.0801 79.3616C41.6488 72.2004 42.5846 66.0223 45.5566 59.7958C48.3715 53.9827 52.9301 48.9814 58.9217 46.6391C68.2326 43.105 77.9493 45.0043 85.0302 52.6384C89.629 57.379 91.7383 64.0039 94.0853 70.1224C94.2607 70.5655 94.4508 70.9938 94.6519 71.4109C99.3311 85.8375 120.764 86.2025 124.763 69.791C124.884 69.2324 125.008 68.6663 125.14 68.0966C125.162 68.0072 125.187 67.9215 125.209 67.8284C125.231 67.7353 125.246 67.6422 125.268 67.5491C125.612 66.0856 126.006 64.6184 126.522 63.2554C128.119 58.85 130.77 54.6046 133.961 51.3611C138.768 46.4678 144.891 43.5147 151.592 44.1738C155.343 44.3898 159.576 45.4102 162.632 47.0636C179.748 56.3474 177.96 80.7469 170.627 96.8232C165.469 108.085 157.218 117.506 148.064 125.65C145.798 127.654 143.21 129.866 140.87 131.735C130.141 140.073 127.392 155.859 135.873 167.173C144.972 179.611 163.093 180.21 173.504 169.146C175.551 167.128 177.522 165.028 179.47 162.912C199.112 140.971 216.962 108.401 219.737 78.3859C220.877 64.354 218.381 50.3332 212.225 37.5638Z" fill="white"/>
<path d="M212.225 37.5638C202.46 16.9591 182.548 2.69627 160.102 1.00931C149.103 -0.0110519 137.752 1.84721 127.841 6.84849C121.185 10.1554 115.255 14.7359 110.276 20.1989C100 8.5429 85.4799 0.916216 69.8155 0.126735C36.8782 -1.85069 8.49211 19.4765 1.57198 52.5825C-2.62835 72.4089 1.95217 93.1142 11.0511 110.553C20.1353 127.758 33.3943 143.053 50.638 152.042C62.6723 157.9 73.9536 143.038 65.1545 132.648C62.3506 129.505 59.7625 126.161 57.4082 122.589C55.2185 119.279 53.2481 115.797 51.4678 112.237C46.5108 102.074 42.8076 90.6303 42.0801 79.3616C41.6488 72.2004 42.5846 66.0223 45.5566 59.7958C48.3715 53.9827 52.9301 48.9814 58.9217 46.6391C68.2326 43.105 77.9493 45.0043 85.0302 52.6384C89.629 57.379 91.7383 64.0039 94.0853 70.1224C94.2607 70.5655 94.4508 70.9938 94.6519 71.4109C99.3311 85.8375 120.764 86.2025 124.763 69.791C124.884 69.2324 125.008 68.6663 125.14 68.0966C125.162 68.0072 125.187 67.9215 125.209 67.8284C125.231 67.7353 125.246 67.6422 125.268 67.5491C125.612 66.0856 126.006 64.6184 126.522 63.2554C128.119 58.85 130.77 54.6046 133.961 51.3611C138.768 46.4678 144.891 43.5147 151.592 44.1738C155.343 44.3898 159.576 45.4102 162.632 47.0636C179.748 56.3474 177.96 80.7469 170.627 96.8232C165.469 108.085 157.218 117.506 148.064 125.65C145.798 127.654 143.21 129.866 140.87 131.735C130.141 140.073 127.392 155.859 135.873 167.173C144.972 179.611 163.093 180.21 173.504 169.146C175.551 167.128 177.522 165.028 179.47 162.912C199.112 140.971 216.962 108.401 219.737 78.3859C220.877 64.354 218.381 50.3332 212.225 37.5638Z" fill="url(#paint0_radial_15269_75003)"/>
<defs>
<radialGradient id="paint0_radial_15269_75003" cx="0" cy="0" r="1" gradientUnits="userSpaceOnUse" gradientTransform="translate(150.653 165.041) rotate(-125.28) scale(190.452 289.412)">
<stop offset="0.0001" stop-color="#09FFD0"/>
<stop offset="1" stop-color="#009EFF"/>
</radialGradient>
</defs>
</svg>
