<svg xmlns="http://www.w3.org/2000/svg" viewBox="0 0 900 207"><defs><clipPath id="a"><path d="M0 0h900v207H0z"/></clipPath><clipPath id="d"><path d="M0 0h555v121H0z"/></clipPath><mask id="e" mask-type="alpha"><path fill="rgb(255,255,255)" d="M240.685 4.643c-2.819-1.03-4.231-2.361-4.231-3.994l-.011-.037c0-3.046 2.216-4.569 6.976-4.569s8.473 2.39 11.128 7.178l21.251-11.255c-3.432-5.654-7.976-9.977-13.614-12.969-5.643-2.992-11.9-4.487-18.765-4.487-9.187 0-16.908 2.334-23.165 7.013-6.251 4.678-9.377 11.264-9.377 19.746 0 5.217 1.412 9.622 4.231 13.215 2.824 3.593 6.23 6.23 10.213 7.917 3.993 1.687 7.975 3.046 11.958 4.077 3.988 1.04 7.394 2.098 10.213 3.183 2.819 1.085 4.236 2.443 4.236 4.076 0 3.375-2.994 5.062-8.97 5.062-7.198 0-11.895-3.201-14.111-9.622l-21.584 12.075c6.31 12.951 18.205 19.418 35.695 19.418 9.742 0 17.935-2.252 24.578-6.767 6.643-4.505 9.969-11.172 9.969-19.983 0-5.654-1.417-10.361-4.236-14.109-2.819-3.748-6.225-6.439-10.213-8.072a93.147 93.147 0 0 0-11.958-3.995c-3.983-1.03-7.389-2.07-10.213-3.101zM169.66-23.175v81.582h24.911v-81.582H169.66zm12.456-7.177c4.094 0 7.605-1.441 10.546-4.323 2.925-2.882 4.395-6.339 4.395-10.361s-1.47-7.479-4.395-10.361c-2.941-2.882-6.447-4.323-10.546-4.323-4.099 0-7.616 1.441-10.546 4.323-2.93 2.882-4.395 6.339-4.395 10.361s1.46 7.479 4.395 10.361c2.93 2.882 6.452 4.323 10.546 4.323zm-56.094-30.344V58.407h24.91V-60.696h-24.91zM62.941 37.511c-5.876 0-10.63-1.788-14.285-5.381-3.649-3.584-5.479-8.427-5.479-14.519 0-6.092 1.83-10.927 5.479-14.52 3.66-3.584 8.42-5.381 14.285-5.381 5.871 0 10.637 1.797 14.286 5.381 3.649 3.584 5.479 8.428 5.479 14.52 0 6.092-1.819 10.935-5.479 14.519-3.66 3.584-8.41 5.381-14.286 5.381zm44.67-60.686H82.7v11.728c.46-4.56-5.849-13.68-24.741-14.008C47-25.647 37.644-21.297 29.896-12.979c-7.754 8.318-11.63 18.515-11.63 30.59 0 12.076 3.876 22.271 11.63 30.589 7.748 8.327 17.438 12.486 28.063 12.486s21.594-3.73 24.741-11.938v9.658h24.911v-81.581zm-151.135-.436v82.028h26.481V30.199C-17.043 6.13-10.881.284-.89.284c3.025 0 6.632-.027 12.942 2.435l7.208-25.263c-4.506-2.736-9.012-3.128-13.158-3.128-9.996 0-20.484 6.703-24.477 21.834v-19.773h-25.149zm-54.449 60.475c-5.426 0-9.97-1.788-13.62-5.381-3.65-3.593-5.479-8.217-5.479-13.872 0-5.654 1.829-10.288 5.479-13.872 3.65-3.585 8.194-5.381 13.62-5.381 5.421 0 9.964 1.787 13.613 5.381 3.655 3.593 5.485 8.208 5.485 13.872s-1.83 10.279-5.485 13.872c-3.655 3.584-8.192 5.381-13.613 5.381zm0 23.832c12.281 0 22.689-4.168 31.215-12.486 8.526-8.318 12.788-18.514 12.788-30.59 0-12.075-4.262-22.271-12.788-30.589-8.526-8.318-18.934-12.477-31.215-12.477-12.286 0-22.695 4.159-31.221 12.477-8.526 8.318-12.789 18.514-12.789 30.589 0 12.076 4.263 22.272 12.789 30.59 8.526 8.327 18.935 12.486 31.221 12.486zm-63.414-76.929c-5.759-6.147-13.402-9.221-22.919-9.221-10.959 0-18.989 3.593-24.081 10.771-4.875-7.178-12.122-10.771-21.756-10.771-10.292 0-17.709 3.256-22.252 9.786v-7.506h-24.91v81.582h24.91V12.395c0-4.779 1.136-8.536 3.407-11.254 2.263-2.718 5.444-4.077 9.544-4.077 3.876 0 6.84 1.205 8.886 3.594 2.046 2.389 3.074 5.655 3.074 9.786v47.964h24.91V12.395c0-4.779 1.136-8.536 3.407-11.254 2.262-2.718 5.444-4.077 9.544-4.077 3.876 0 6.84 1.205 8.886 3.594 2.046 2.389 3.073 5.655 3.073 9.786v47.964h24.911V8.319c0-10.224-2.875-18.405-8.634-24.552z" transform="translate(277.305 60.696)" style="display: block;"/></mask><mask id="b" mask-type="alpha"><path stroke-linecap="round" fill-opacity="0" stroke="rgb(9,9,9)" stroke-width="82" d="M-57.255 64C-71.175 45.496-113.248-14.809-91.5-41-45-97-.5-29-.5-30S69-106 95-42.5C121.87 23.124 45 86 45 86m-98-16.5s-1.625-2.004-4.255-5.5" transform="translate(130.5 103.5)" style="display: block;"/></mask><radialGradient id="c" spreadMethod="pad" gradientUnits="userSpaceOnUse" cx="48.281" cy="78.708" r="242.289" fx="48.281" fy="78.708"><stop offset="0%" stop-color="rgb(51,255,204)"/><stop offset="50%" stop-color="rgb(33,191,229)"/><stop offset="100%" stop-color="rgb(15,127,255)"/></radialGradient></defs><g clip-path="url(#a)"><g mask="url(#b)" style="display: block;"><path fill="url(#c)" d="M58.304-102.177c26.121 1.969 49.296 18.63 60.657 42.695h-.009c7.163 14.915 10.065 31.29 8.734 47.675-3.231 35.05-24 73.086-46.855 98.71-2.264 2.468-4.562 4.919-6.941 7.28-12.116 12.919-33.205 12.215-43.793-2.308-9.87-13.213-6.675-31.647 5.813-41.385 2.725-2.183 5.734-4.767 8.37-7.11 10.651-9.507 20.255-20.51 26.255-33.661C79.073-9.053 81.15-37.547 61.233-48.39c-3.55-1.933-8.476-3.127-12.843-3.376-7.802-.766-14.929 2.682-20.521 8.393-3.71 3.787-6.799 8.749-8.654 13.89-.595 1.595-1.056 3.305-1.456 5.016-.026.116-.044.222-.071.329-.026.107-.053.205-.08.312-.151.668-.293 1.328-.435 1.978-4.659 19.164-29.6 18.738-35.041 1.889-.231-.49-.453-.989-.657-1.506-2.734-7.146-5.184-14.887-10.536-20.42-8.237-8.91-19.544-11.128-30.381-7.003-6.967 2.744-12.276 8.58-15.551 15.369-3.462 7.279-4.553 14.487-4.047 22.853.852 13.16 5.157 26.524 10.926 38.392 2.077 4.161 4.367 8.223 6.914 12.09a101.805 101.805 0 0 0 9.018 11.743c10.243 12.135-2.885 29.491-16.891 22.648-20.068-10.495-35.494-28.359-46.065-48.45-10.589-20.368-15.924-44.549-11.033-67.705 8.05-38.659 41.086-63.57 79.412-61.254 18.231.918 35.122 9.828 47.077 23.433 5.796-6.379 12.693-11.734 20.441-15.592 11.539-5.836 24.746-8.01 37.545-6.816z" transform="translate(130.5 103.35)"/></g><g clip-path="url(#d)" transform="translate(323.5 27)" style="display: block;"><g mask="url(#e)" style="display: block;"><path stroke-linecap="round" stroke-linejoin="round" stroke="rgb(255,255,255)" stroke-width="32" d="m-266 59.5-1.5-83L-264-5s33.02-12.58 42.76-2.29C-211.5 3-215.751 39.014-217 56.5c-1.903-25.923 11.146-51.83 18.823-60.665S-168.024-14.047-167.5 8.5c.342 14.712-4.49 37.986 4.005 42.993C-155 56.5-126.158 42.842-125.5 43.5c1 1 45.5 19.5 55.5-8.5s-6.5-59.5-37-50c-32.024 9.975-27.5 30-18.5 53s95 10.5 95 10.5l-4.5-70 11.5 28s11.396-8.362 15.948-9.931C-3-5 .333-12.537 4.5-13c9-1 73 1 73 1s-59 8.5-43 42c16.292 34.111 50 13.5 50 13.5l8-66 13.5 77 32.5-4.5L140-59l42 116.5-2.5-76 2.5-37s13.176 73.196 14.838 76.848C198.5 25 218.5 39.5 218.5 39.5s37 23.5 43 5.5 6.381-22.765-18.5-27c-5.636-.959-17.364-2.186-19.682-4.593C221 11 203.36 1.523 202.423-1.007c-.923-2.493 13.953-23.739 21.765-24.866C232-27 234.05-15 237-15c14 0 36.5 13.5 36.5 13.5" fill="none" transform="matrix(1.00374 0 0 1 277.5 60.5)"/></g></g></g></svg>