<svg width="167" height="40" fill="none" xmlns="http://www.w3.org/2000/svg"><g clip-path="url(#a)"><path d="M78.607 12.188c1.814 0 3.271.581 4.369 1.744 1.097 1.162 1.645 2.71 1.645 4.643v9.474h-4.748v-9.072c0-.781-.196-1.399-.585-1.85-.39-.453-.956-.68-1.694-.68-.782 0-1.388.257-1.82.77-.432.515-.648 1.226-.648 2.13v8.702h-4.748v-9.072c0-.781-.196-1.399-.586-1.85-.39-.453-.955-.68-1.694-.68-.781 0-1.388.257-1.819.77-.433.515-.65 1.226-.65 2.13v8.702h-4.747v-15.43h4.748v1.42c.866-1.236 2.28-1.851 4.24-1.851 1.837 0 3.218.68 4.147 2.037.971-1.358 2.502-2.037 4.59-2.037Zm22.405 13.932c-1.625 1.573-3.609 2.362-5.95 2.362s-4.325-.787-5.95-2.362c-1.625-1.573-2.438-3.501-2.438-5.785 0-2.284.813-4.213 2.438-5.786 1.625-1.573 3.609-2.36 5.95-2.36s4.325.787 5.95 2.36 2.438 3.502 2.438 5.786-.813 4.212-2.438 5.785Zm-8.546-3.163c.696.68 1.562 1.017 2.596 1.017s1.898-.34 2.595-1.017c.696-.68 1.045-1.553 1.045-2.624 0-1.071-.349-1.944-1.045-2.624-.695-.68-1.561-1.017-2.595-1.017-1.034 0-1.9.34-2.596 1.017-.695.678-1.044 1.555-1.044 2.624 0 1.07.349 1.944 1.044 2.624Zm12.974 5.093V12.537h4.793v3.74c.761-2.862 2.76-4.13 4.665-4.13.791 0 1.649.074 2.508.592l-1.374 4.778c-1.202-.466-1.889-.46-2.467-.46-1.903 0-3.078 1.105-3.078 5.657v5.338h-5.047v-.002Zm24.058-15.431h4.748v15.43h-4.748v-1.827c-.6 1.552-2.69 2.258-4.716 2.258-2.025 0-3.871-.787-5.349-2.361-1.477-1.574-2.216-3.502-2.216-5.786s.739-4.212 2.216-5.786c1.478-1.573 3.261-2.396 5.349-2.36 3.601.063 4.803 1.788 4.716 2.65v-2.218Zm-6.488 10.46c.695.68 1.602 1.018 2.722 1.018 1.12 0 2.026-.34 2.723-1.018.697-.678 1.044-1.594 1.044-2.746s-.348-2.068-1.044-2.746c-.696-.678-1.604-1.018-2.723-1.018-1.118 0-2.025.34-2.722 1.018-.696.68-1.045 1.594-1.045 2.746s.349 2.068 1.045 2.746Zm14.745 4.97V5.522h4.748V28.05h-4.748v-.001Zm12.701-17.605a2.782 2.782 0 0 1-2.01.817c-.78 0-1.451-.272-2.01-.817-.56-.545-.838-1.2-.838-1.96s.28-1.414.838-1.96a2.78 2.78 0 0 1 2.01-.817c.782 0 1.45.272 2.01.817.558.546.838 1.2.838 1.96s-.28 1.415-.838 1.96Zm-4.384 17.605v-15.43h4.748v15.43h-4.748Zm12.731-10.924c0 .308.269.56.807.755.538.195 1.187.392 1.946.587.759.195 1.519.446 2.28.755.759.309 1.408.818 1.946 1.527s.807 1.599.807 2.668c0 1.667-.634 2.928-1.9 3.78-1.266.854-2.827 1.28-4.684 1.28-3.334 0-5.601-1.223-6.804-3.673l4.114-2.284c.423 1.215 1.318 1.82 2.69 1.82 1.139 0 1.709-.319 1.709-.957 0-.309-.269-.566-.807-.771a18.718 18.718 0 0 0-1.946-.602 16.44 16.44 0 0 1-2.28-.771 4.861 4.861 0 0 1-1.946-1.498c-.538-.68-.807-1.512-.807-2.5 0-1.603.596-2.849 1.788-3.734 1.192-.885 2.664-1.326 4.414-1.326 1.309 0 2.502.283 3.577.848a6.61 6.61 0 0 1 2.595 2.453l-4.05 2.129c-.507-.906-1.215-1.358-2.122-1.358-.906 0-1.329.288-1.329.865l.002.007Z" fill="#396993"/><path d="M47.791 8.49C45.593 3.831 41.108.607 36.053.226c-2.477-.231-5.033.19-7.266 1.32a13.485 13.485 0 0 0-3.955 3.016C22.518 1.931 19.25.206 15.722.03 8.305-.42 1.912 4.4.354 11.882c-.946 4.481.086 9.16 2.135 13.102 2.046 3.888 5.03 7.345 8.914 9.376 2.71 1.325 5.251-2.034 3.269-4.383a19.686 19.686 0 0 1-1.745-2.272 22.589 22.589 0 0 1-1.338-2.34c-1.117-2.296-1.95-4.882-2.114-7.43-.098-1.618.113-3.013.783-4.421.634-1.314 1.66-2.444 3.009-2.975 2.097-.798 4.285-.369 5.88 1.356 1.035 1.07 1.51 2.569 2.038 3.951.04.1.083.197.127.292 1.053 3.26 5.88 3.343 6.781-.366.028-.126.055-.253.085-.383l.015-.06.014-.064a7.626 7.626 0 0 1 1.956-3.659c1.082-1.105 2.462-1.772 3.971-1.624.845.049 1.799.28 2.486.654 3.854 2.098 3.452 7.612 1.8 11.245-1.161 2.545-3.02 4.674-5.08 6.514a43.15 43.15 0 0 1-1.62 1.376c-2.417 1.884-3.036 5.451-1.126 8.008 2.05 2.81 6.13 2.947 8.475.447.46-.457.905-.931 1.343-1.409 4.423-4.959 8.442-12.319 9.068-19.102.257-3.17-.304-6.34-1.69-9.226h.001v.001Z" fill="url(#b)"/></g><defs><radialGradient id="b" cx="0" cy="0" r="1" gradientUnits="userSpaceOnUse" gradientTransform="rotate(-131.427 25.005 9.92) scale(41.1201 62.4129)"><stop stop-color="#33FFCC"/><stop offset="1" stop-color="#0077FF"/></radialGradient><clipPath id="a"><path fill="white" d="M0 0h167v40H0z"/></clipPath></defs></svg>