<svg xmlns="http://www.w3.org/2000/svg" width="275" height="66" fill="none"><path fill="#396993" d="M129.209 19.984c2.989 0 5.389.958 7.198 2.873 1.809 1.916 2.712 4.466 2.712 7.653v15.61h-7.824V31.173c0-1.288-.323-2.305-.965-3.05-.643-.745-1.574-1.12-2.791-1.12-1.288 0-2.287.423-2.998 1.27-.713.848-1.07 2.019-1.07 3.508v14.34h-7.823V31.173c0-1.288-.323-2.305-.966-3.05-.642-.745-1.573-1.12-2.791-1.12-1.288 0-2.287.423-2.997 1.27-.714.848-1.07 2.019-1.07 3.508v14.34H100V20.695h7.824v2.34c1.426-2.035 3.756-3.05 6.989-3.05 3.025 0 5.301 1.12 6.833 3.357 1.599-2.237 4.121-3.357 7.563-3.357ZM166.129 42.943c-2.678 2.592-5.948 3.89-9.806 3.89-3.858 0-7.127-1.295-9.805-3.89-2.678-2.593-4.016-5.77-4.016-9.534 0-3.764 1.338-6.942 4.016-9.534 2.678-2.593 5.947-3.889 9.805-3.889 3.858 0 7.128 1.296 9.806 3.889 2.677 2.592 4.016 5.77 4.016 9.534 0 3.763-1.339 6.941-4.016 9.534Zm-14.083-5.214c1.147 1.12 2.573 1.677 4.277 1.677 1.704 0 3.128-.56 4.277-1.677 1.147-1.12 1.721-2.558 1.721-4.323 0-1.765-.574-3.204-1.721-4.324-1.146-1.12-2.573-1.677-4.277-1.677-1.704 0-3.13.56-4.277 1.677-1.146 1.117-1.721 2.561-1.721 4.324 0 1.762.575 3.203 1.721 4.323ZM173.426 46.123V20.558h7.897v6.162c1.254-4.715 4.549-6.805 7.688-6.805 1.302 0 2.717.123 4.133.975l-2.265 7.874c-1.981-.767-3.113-.759-4.065-.759-3.136 0-5.072 1.822-5.072 9.324v8.794h-8.316ZM213.068 20.694h7.824V46.12h-7.824v-3.01c-.987 2.558-4.432 3.721-7.77 3.721-3.337 0-6.38-1.296-8.814-3.891-2.434-2.593-3.652-5.77-3.652-9.534 0-3.764 1.218-6.942 3.652-9.534 2.434-2.592 5.372-3.948 8.814-3.889 5.933.103 7.915 2.945 7.77 4.366v-3.655Zm-10.691 17.237c1.147 1.12 2.641 1.677 4.487 1.677 1.845 0 3.337-.56 4.486-1.677 1.15-1.117 1.721-2.627 1.721-4.525 0-1.9-.574-3.408-1.721-4.525-1.146-1.118-2.643-1.678-4.486-1.678s-3.338.56-4.487 1.678c-1.146 1.12-1.721 2.626-1.721 4.525 0 1.898.575 3.408 1.721 4.525ZM226.675 46.12V9h7.824v37.12h-7.824ZM247.605 17.11c-.923.898-2.027 1.347-3.312 1.347-1.285 0-2.392-.449-3.312-1.347-.923-.898-1.381-1.976-1.381-3.23 0-1.253.461-2.33 1.381-3.229.92-.898 2.024-1.347 3.312-1.347 1.288 0 2.389.45 3.312 1.348.92.898 1.381 1.975 1.381 3.229 0 1.253-.461 2.33-1.381 3.229Zm-7.224 29.01V20.695h7.824v25.427h-7.824ZM261.359 28.119c0 .509.444.924 1.33 1.245.886.321 1.956.645 3.207.966 1.251.322 2.502.737 3.756 1.245 1.251.51 2.321 1.348 3.207 2.516.886 1.168 1.331 2.635 1.331 4.397 0 2.746-1.045 4.824-3.131 6.228-2.086 1.407-4.659 2.11-7.719 2.11-5.494 0-9.231-2.016-11.212-6.052l6.779-3.764c.697 2.001 2.171 3 4.433 3 1.877 0 2.816-.527 2.816-1.578 0-.51-.444-.933-1.33-1.271-.886-.338-1.956-.668-3.207-.992a27.206 27.206 0 0 1-3.756-1.27c-1.251-.527-2.321-1.348-3.207-2.468-.886-1.12-1.331-2.493-1.331-4.119 0-2.643.983-4.696 2.947-6.154 1.964-1.458 4.39-2.186 7.275-2.186 2.157 0 4.121.466 5.893 1.399 1.772.932 3.198 2.28 4.277 4.042l-6.675 3.508c-.835-1.493-2.001-2.238-3.495-2.238-1.495 0-2.191.475-2.191 1.425l.003.01Z"/><path fill="url(#a)" d="M78.752 13.989C75.13 6.315 67.74 1.002 59.41.374c-4.082-.38-8.293.313-11.973 2.174-2.47 1.23-4.67 2.937-6.518 4.972C37.106 3.18 31.72.34 25.907.047 13.685-.69 3.15 7.253.583 19.58c-1.56 7.385.142 15.096 3.518 21.59 3.371 6.407 8.29 12.104 14.69 15.45 4.466 2.183 8.652-3.352 5.386-7.222a32.432 32.432 0 0 1-2.875-3.744 37.23 37.23 0 0 1-2.205-3.856c-1.84-3.784-3.213-8.046-3.485-12.242-.16-2.668.187-4.967 1.291-7.288 1.045-2.165 2.737-4.026 4.959-4.9 3.456-1.316 7.062-.609 9.688 2.232 1.707 1.765 2.488 4.234 3.36 6.512.065.165.136.324.21.48 1.735 5.373 9.688 5.51 11.174-.602.045-.207.09-.418.139-.63l.025-.1.023-.105c.127-.546.274-1.091.464-1.6.591-1.64 1.576-3.222 2.76-4.43 1.782-1.82 4.055-2.92 6.543-2.675 1.393.079 2.964.46 4.096 1.076 6.351 3.458 5.689 12.544 2.966 18.53-1.913 4.194-4.976 7.703-8.372 10.734-.84.747-1.8 1.571-2.67 2.267-3.982 3.106-5 8.984-1.853 13.198 3.377 4.63 10.101 4.855 13.965.735a68.361 68.361 0 0 0 2.213-2.32c7.288-8.172 13.911-20.3 14.942-31.478.424-5.225-.501-10.447-2.785-15.203h.002Z"/><defs><radialGradient id="a" cx="0" cy="0" r="1" gradientTransform="rotate(-131.427 41.205 16.345) scale(67.7597 102.847)" gradientUnits="userSpaceOnUse"><stop stop-color="#3FC"/><stop offset="1" stop-color="#0F7FFF"/></radialGradient></defs></svg>