<svg xmlns="http://www.w3.org/2000/svg" width="276" height="66" fill="none"><path fill="#fff" d="M129.511 20.109c2.994 0 5.398.959 7.21 2.877 1.812 1.918 2.716 4.47 2.716 7.66v15.627H131.6V31.309c0-1.29-.323-2.308-.966-3.053-.644-.746-1.577-1.122-2.796-1.122-1.29 0-2.291.424-3.003 1.272-.714.848-1.072 2.02-1.072 3.512v14.355h-7.836V31.309c0-1.29-.324-2.308-.967-3.053-.644-.746-1.577-1.122-2.796-1.122-1.29 0-2.291.424-3.003 1.272-.714.848-1.071 2.02-1.071 3.512v14.355h-7.837V20.82h7.837v2.342c1.429-2.037 3.762-3.053 7-3.053 3.031 0 5.311 1.121 6.845 3.36 1.602-2.239 4.128-3.36 7.576-3.36ZM166.915 43.092c-2.682 2.595-5.957 3.895-9.822 3.895-3.864 0-7.139-1.297-9.822-3.895-2.682-2.595-4.023-5.776-4.023-9.544 0-3.767 1.341-6.949 4.023-9.544 2.683-2.595 5.958-3.892 9.822-3.892 3.865 0 7.14 1.297 9.822 3.892 2.682 2.595 4.023 5.777 4.023 9.544 0 3.767-1.341 6.949-4.023 9.544Zm-14.106-5.219c1.148 1.121 2.577 1.679 4.284 1.679 1.707 0 3.133-.56 4.284-1.679 1.149-1.121 1.724-2.56 1.724-4.328 0-1.767-.575-3.207-1.724-4.328-1.148-1.12-2.577-1.679-4.284-1.679-1.707 0-3.136.561-4.284 1.68-1.148 1.117-1.724 2.563-1.724 4.327 0 1.764.576 3.207 1.724 4.328ZM182.753 46.276h-8.327V20.684h7.91v6.169c1.256-4.721 4.557-6.812 7.701-6.812 1.046 0 2.2.054 3.615.697l-2.041 8.047c-1.73-.643-2.986-.643-3.771-.643-3.142 0-5.081 1.824-5.081 9.333v8.804l-.006-.003ZM214.416 20.82h7.836v25.453h-7.836V43.26c-.99 2.56-4.441 3.724-7.784 3.724-3.342 0-6.39-1.297-8.829-3.895-2.438-2.595-3.657-5.776-3.657-9.544 0-3.767 1.219-6.948 3.657-9.544 2.439-2.595 5.382-3.952 8.829-3.892 5.943.102 7.928 2.948 7.784 4.37V20.82Zm-10.71 17.255c1.149 1.121 2.646 1.679 4.494 1.679 1.849 0 3.343-.56 4.494-1.679 1.152-1.118 1.724-2.629 1.724-4.53 0-1.9-.575-3.412-1.724-4.53-1.148-1.118-2.648-1.679-4.494-1.679-1.845 0-3.342.56-4.494 1.68-1.148 1.12-1.724 2.628-1.724 4.53 0 1.9.576 3.41 1.724 4.53ZM228.045 46.273V9.114h7.837v37.159h-7.837ZM249.01 17.232c-.925.9-2.03 1.349-3.318 1.349-1.287 0-2.396-.45-3.317-1.349-.924-.899-1.384-1.977-1.384-3.232 0-1.255.462-2.334 1.384-3.233.921-.899 2.027-1.349 3.317-1.349s2.393.45 3.318 1.35c.921.898 1.383 1.977 1.383 3.232 0 1.255-.462 2.333-1.383 3.232Zm-7.236 29.041V20.82h7.837v25.453h-7.837ZM262.787 28.253c0 .509.445.924 1.332 1.246.888.322 1.96.646 3.213.967 1.253.322 2.506.737 3.762 1.247 1.253.51 2.325 1.349 3.213 2.518.887 1.17 1.332 2.638 1.332 4.402 0 2.749-1.046 4.829-3.136 6.234-2.089 1.409-4.667 2.112-7.732 2.112-5.503 0-9.246-2.018-11.23-6.058l6.79-3.768c.698 2.004 2.175 3.002 4.44 3.002 1.88 0 2.822-.526 2.822-1.579 0-.51-.446-.933-1.333-1.272-.887-.339-1.959-.669-3.212-.993a27.216 27.216 0 0 1-3.763-1.272c-1.253-.526-2.325-1.349-3.212-2.47-.888-1.12-1.333-2.495-1.333-4.123 0-2.646.984-4.7 2.952-6.16 1.967-1.46 4.397-2.189 7.286-2.189 2.161 0 4.129.467 5.904 1.4 1.775.934 3.204 2.283 4.284 4.047l-6.686 3.511c-.836-1.494-2.005-2.24-3.502-2.24-1.497 0-2.194.476-2.194 1.426l.003.012Z"/><path fill="url(#a)" d="M78.752 13.989C75.13 6.315 67.74 1.002 59.41.374c-4.082-.38-8.293.313-11.973 2.174-2.47 1.23-4.67 2.937-6.518 4.972C37.106 3.18 31.72.34 25.907.047 13.685-.69 3.15 7.253.583 19.58c-1.56 7.385.142 15.096 3.518 21.59 3.371 6.407 8.29 12.104 14.69 15.45 4.466 2.183 8.652-3.352 5.386-7.222a32.432 32.432 0 0 1-2.875-3.744 37.23 37.23 0 0 1-2.205-3.856c-1.84-3.784-3.213-8.046-3.485-12.242-.16-2.668.187-4.967 1.291-7.288 1.045-2.165 2.737-4.026 4.959-4.9 3.456-1.316 7.062-.609 9.688 2.232 1.707 1.765 2.488 4.234 3.36 6.512.065.165.136.324.21.48 1.735 5.373 9.688 5.51 11.174-.602.045-.207.09-.418.139-.63l.025-.1.023-.105c.127-.546.274-1.091.464-1.6.591-1.64 1.576-3.222 2.76-4.43 1.782-1.82 4.055-2.92 6.543-2.675 1.393.079 2.964.46 4.096 1.076 6.351 3.458 5.689 12.544 2.966 18.53-1.913 4.194-4.976 7.703-8.372 10.734-.84.747-1.8 1.571-2.67 2.267-3.982 3.106-5 8.984-1.853 13.198 3.377 4.63 10.101 4.855 13.965.735a68.361 68.361 0 0 0 2.213-2.32c7.288-8.172 13.911-20.3 14.942-31.478.424-5.225-.501-10.447-2.785-15.203h.002Z"/><defs><radialGradient id="a" cx="0" cy="0" r="1" gradientTransform="rotate(-131.427 41.205 16.345) scale(67.7597 102.847)" gradientUnits="userSpaceOnUse"><stop offset="0" stop-color="#3FC"/><stop offset="1" stop-color="#0F7FFF"/></radialGradient></defs></svg>