<svg width="287" height="36" viewBox="0 0 287 36" fill="none" xmlns="http://www.w3.org/2000/svg">
<g clip-path="url(#clip0_1626_41185)">
<path d="M69.4945 12.8368C71.0738 12.8368 72.3419 13.3402 73.2968 14.3489C74.2517 15.3576 74.7282 16.7006 74.7282 18.378V26.5955H70.5954V18.7257C70.5954 18.0475 70.4244 17.5115 70.0863 17.1195C69.7462 16.7275 69.2543 16.5297 68.6126 16.5297C67.9324 16.5297 67.4041 16.7525 67.0294 17.1983C66.6528 17.644 66.4645 18.2608 66.4645 19.0447V26.5936H62.3318V18.7238C62.3318 18.0456 62.1608 17.5095 61.8226 17.1176C61.4845 16.7256 60.9907 16.5277 60.349 16.5277C59.6688 16.5277 59.1404 16.7506 58.7658 17.1964C58.3892 17.6421 58.2009 18.2588 58.2009 19.0428V26.5917H54.0681V13.2077H58.2009V14.4392C58.9541 13.3671 60.1837 12.833 61.8918 12.833C63.4903 12.833 64.6912 13.4229 65.5 14.6006C66.3454 13.4229 67.6769 12.833 69.4945 12.833" fill="#020303"/>
<path d="M88.9942 24.9231C90.4083 23.559 91.1154 21.8855 91.1154 19.9046C91.1154 17.9237 90.4083 16.2502 88.9942 14.8861C87.5801 13.5219 85.8528 12.8398 83.8162 12.8398C81.7796 12.8398 80.0523 13.5219 78.6382 14.8861C77.2241 16.2502 76.5171 17.9237 76.5171 19.9046C76.5171 21.8855 77.2241 23.559 78.6382 24.9231C80.0523 26.2892 81.7796 26.9712 83.8162 26.9712C85.8528 26.9712 87.5801 26.2872 88.9942 24.9231ZM81.5567 22.1775C80.9515 21.5877 80.648 20.8287 80.648 19.9007C80.648 18.9727 80.9515 18.2138 81.5567 17.6259C82.162 17.038 82.9151 16.7421 83.8162 16.7421C84.7173 16.7421 85.4705 17.036 86.0757 17.6259C86.6809 18.2157 86.9845 18.9727 86.9845 19.9007C86.9845 20.8287 86.6809 21.5877 86.0757 22.1775C85.4686 22.7654 84.7173 23.0594 83.8162 23.0594C82.9151 23.0594 82.162 22.7654 81.5567 22.1775Z" fill="#020303"/>
<path d="M97.2386 26.5969H92.8484V13.1379H97.0196V16.3811C97.6825 13.8988 99.4232 12.7979 101.079 12.7979C101.767 12.7979 102.515 12.8613 103.262 13.3108L102.065 17.4552C101.018 17.0517 100.42 17.0555 99.9189 17.0555C98.2627 17.0555 97.2406 18.0143 97.2406 21.9645V26.5949L97.2386 26.5969Z" fill="#020303"/>
<path d="M113.787 15.1358C113.864 14.3884 112.817 12.8917 109.683 12.8379C107.866 12.8071 106.313 13.5199 105.028 14.8841C103.743 16.2482 103.099 17.9217 103.099 19.9026C103.099 21.8835 103.743 23.557 105.028 24.9211C106.313 26.2872 107.921 26.9693 109.683 26.9693C111.445 26.9693 113.265 26.3564 113.787 25.0114V26.5965H117.92V13.2125H113.787V15.1358ZM108.14 22.2851C107.535 21.6971 107.232 20.9017 107.232 19.9026C107.232 18.9035 107.535 18.11 108.14 17.5202C108.748 16.9322 109.537 16.6383 110.509 16.6383C111.482 16.6383 112.273 16.9322 112.878 17.5202C113.484 18.1081 113.787 18.9035 113.787 19.9026C113.787 20.9017 113.486 21.6971 112.878 22.2851C112.271 22.873 111.484 23.1669 110.509 23.1669C109.535 23.1669 108.746 22.873 108.14 22.2851Z" fill="#020303"/>
<path d="M125.106 7.05469H120.973V26.5946H125.106V7.05469Z" fill="#020303"/>
<path d="M132.026 11.3236C132.512 10.8509 132.756 10.2842 132.756 9.62322C132.756 8.96228 132.512 8.39549 132.026 7.92284C131.538 7.45019 130.958 7.21387 130.278 7.21387C129.598 7.21387 129.014 7.45019 128.529 7.92284C128.043 8.39549 127.799 8.96228 127.799 9.62322C127.799 10.2842 128.041 10.8509 128.529 11.3236C129.016 11.7962 129.6 12.0326 130.278 12.0326C130.956 12.0326 131.54 11.7962 132.026 11.3236ZM128.212 26.5943H132.345V13.2103H128.212V26.5943Z" fill="#020303"/>
<path d="M139.291 17.1195C139.291 17.3865 139.525 17.6056 139.994 17.7746C140.461 17.9437 141.028 18.1147 141.687 18.2838C142.346 18.4529 143.008 18.6719 143.671 18.939C144.332 19.206 144.897 19.6479 145.366 20.2628C145.835 20.8776 146.069 21.65 146.069 22.578C146.069 24.0228 145.518 25.118 144.415 25.8558C143.314 26.5955 141.954 26.9663 140.338 26.9663C137.437 26.9663 135.463 25.9057 134.416 23.7807L137.998 21.7998C138.365 22.8527 139.145 23.3792 140.34 23.3792C141.331 23.3792 141.827 23.1025 141.827 22.5492C141.827 22.2821 141.592 22.0592 141.124 21.8805C140.655 21.7018 140.09 21.5289 139.429 21.3579C138.768 21.1889 138.107 20.966 137.444 20.6893C136.783 20.4126 136.218 19.9803 135.75 19.3905C135.281 18.8006 135.046 18.0782 135.046 17.2213C135.046 15.8303 135.565 14.7485 136.603 13.9819C137.64 13.2153 138.922 12.8311 140.445 12.8311C141.585 12.8311 142.622 13.077 143.558 13.5669C144.494 14.0588 145.247 14.7678 145.817 15.6938L142.292 17.5402C141.85 16.7544 141.235 16.3625 140.445 16.3625C139.656 16.3625 139.289 16.6122 139.289 17.1118V17.1175L139.291 17.1195Z" fill="#020303"/>
<path d="M41.8235 4.42321C40.5996 3.02832 39.1106 1.90434 37.5178 1.17808C32.5588 -1.11407 26.5182 0.0310431 22.6716 3.85642C18.8271 0.042571 12.746 -1.0987 7.82935 1.17424C5.11643 2.41349 2.81083 4.71333 1.50048 7.48197L1.49088 7.5031C0.418772 9.9259 -0.0923027 12.5812 0.0133706 15.1807H0.0172133C-0.0173707 16.6371 0.232403 18.08 0.781904 19.4173C2.51302 24.6356 6.64005 29.1988 12.4098 32.2768C12.7441 32.4497 13.0957 32.5342 13.4435 32.5342C14.0737 32.5342 14.6827 32.2556 15.1227 31.7311C15.8298 30.8876 15.8624 29.6983 15.1977 28.8376L14.7154 28.217C12.9997 25.8249 11.0841 23.0179 10.012 19.961L9.99277 19.9111C8.94757 17.4229 9.12241 14.5313 10.4404 12.5485C11.232 11.3592 12.3214 10.7021 13.5088 10.7021C15.7798 10.7021 16.7559 12.1258 18.2852 14.6409C18.4985 14.9905 18.7156 15.3479 18.9423 15.7072L19.0019 15.8033C19.0077 15.8148 19.0153 15.8282 19.0211 15.8398H19.023C19.5764 17.1905 20.7657 18.0896 22.2989 18.2299C24.2222 18.4067 25.9341 17.2846 26.4874 15.4939L26.5278 15.4036L26.5316 15.3748C27.9668 11.3957 30.2993 10.7886 31.2408 10.7136C32.651 10.6003 33.9748 11.3438 34.6915 12.6542C35.9039 14.8676 35.1949 18.0762 32.7913 21.2425C31.4502 23.0428 29.8978 24.6049 28.3011 25.7615C27.6652 26.2226 27.1426 26.7741 26.7468 27.4004C25.2808 29.7214 25.7266 32.6591 27.8323 34.542C28.7431 35.3567 30.0572 35.9945 31.5367 35.9945C32.6914 35.9945 33.9479 35.6064 35.191 34.6131C39.9579 30.8108 43.3356 26.2976 44.9553 21.5749C45.1339 21.0773 45.28 20.5662 45.3952 20.0494C45.3952 20.0494 45.3952 20.0475 45.3952 20.0456C45.3972 20.036 45.3991 20.0263 45.401 20.0148C45.4567 19.8169 45.522 19.5287 45.6239 19.0868L45.6469 18.9831C45.8218 18.1069 45.9371 17.2154 45.9928 16.3278C46.2291 11.9548 44.669 7.5031 41.8177 4.41552L41.8235 4.42321ZM8.55177 2.74589C12.8556 0.755385 18.1796 1.77753 21.5188 5.14755C20.3891 6.50977 19.5821 8.03916 19.1191 9.69342C17.655 6.39257 14.7634 4.34635 11.3166 4.09658C10.8093 4.06008 10.2925 4.062 9.76413 4.10427H9.76029C9.58353 4.11772 9.41061 4.13885 9.23577 4.16383C9.19158 4.16959 9.14931 4.17728 9.10512 4.18304C8.93604 4.20994 8.76696 4.23876 8.60173 4.27527C8.59596 4.27527 8.5902 4.27719 8.58443 4.27911C8.40383 4.31753 8.22322 4.36365 8.04454 4.4136C8.01764 4.42129 7.99074 4.42897 7.96384 4.43666C7.60263 4.54041 7.24719 4.66722 6.89943 4.81324C6.88213 4.82092 6.86484 4.82861 6.84755 4.83437C6.49402 4.98616 6.14818 5.15716 5.81195 5.34929C5.79466 5.3589 5.77929 5.3685 5.762 5.37811C5.59676 5.47226 5.43537 5.57216 5.2759 5.67592C5.27398 5.67592 5.27014 5.67976 5.26821 5.68168C5.1049 5.78928 4.94351 5.90071 4.78404 6.01791C4.76675 6.02944 4.75138 6.04289 4.73408 6.05634C4.45357 6.26384 4.18074 6.4848 3.91944 6.72112C5.08569 4.99384 6.71114 3.58551 8.55369 2.74396L8.55177 2.74589ZM13.5088 8.97677C11.722 8.97677 10.1215 9.90669 8.99944 11.5936C7.374 14.0395 7.13575 17.5555 8.38654 20.5586C9.53742 23.8287 11.5337 26.7529 13.3186 29.2391L13.8297 29.8962C14.0967 30.2421 13.8278 30.5841 13.7951 30.6206C13.6817 30.757 13.4858 30.8876 13.2148 30.7474C7.83511 27.8788 3.99821 23.6519 2.41311 18.8466L2.39006 18.7871C1.90973 17.6285 1.69838 16.372 1.74449 15.102C1.74449 15.0578 1.74833 15.0136 1.75218 14.9713C1.75794 14.8407 1.76755 14.7081 1.77908 14.5774C1.78292 14.5371 1.78676 14.4948 1.7906 14.4545C1.94431 13.0058 2.42849 11.5571 3.23737 10.2352C4.59191 8.01994 6.6535 6.48672 8.888 5.98717C8.91106 5.98141 8.93412 5.97564 8.95909 5.9718C9.08398 5.9449 9.21079 5.92185 9.33568 5.90263C9.37026 5.89687 9.40484 5.89111 9.43943 5.88534C9.58929 5.86421 9.74108 5.84499 9.89094 5.83347C9.89286 5.83347 9.89478 5.83347 9.89863 5.83347C12.504 5.62212 14.8326 6.62505 16.3908 8.52717C16.8923 9.14008 17.315 9.84713 17.6397 10.6368C17.6647 10.6983 17.6915 10.7655 17.7165 10.8328C17.7184 10.8385 17.7204 10.8443 17.7223 10.8501C16.6982 9.7549 15.4032 8.98061 13.5069 8.98061L13.5088 8.97677ZM22.4584 16.5122C21.686 16.4411 20.8252 15.9762 20.5255 14.9098C20.5236 14.8983 20.5198 14.8849 20.5178 14.8753C20.4929 14.7408 20.466 14.6063 20.441 14.4756C20.4391 14.4545 20.4333 14.4333 20.4314 14.4122C20.2911 12.8502 20.3929 11.5052 20.7445 10.2852C21.1749 8.67704 21.9761 7.20914 23.1232 5.92569L23.1462 5.89879C25.3365 3.2339 28.7623 1.7564 32.1688 1.7564C33.7577 1.7564 35.3428 2.07726 36.7973 2.74973C38.1749 3.37992 39.466 4.35596 40.5304 5.57216L40.5458 5.58946C41.1914 6.28882 41.7639 7.06504 42.2539 7.90082C42.2212 7.86239 42.1866 7.82589 42.152 7.78746C42.056 7.67794 41.9599 7.56843 41.8638 7.46276C41.8408 7.4397 41.8196 7.41472 41.7966 7.39167C40.1289 5.61828 38.1461 4.50775 36.096 4.19265C36.096 4.19265 36.0941 4.19265 36.0921 4.19265C35.9269 4.16767 35.7617 4.14654 35.5964 4.13117C35.5503 4.12732 35.5023 4.1254 35.4562 4.12156C35.3313 4.11195 35.2064 4.10235 35.0815 4.10042C34.9124 4.09658 34.7415 4.09658 34.5724 4.10427C34.5647 4.10427 34.557 4.10427 34.5512 4.10427C30.8066 4.11387 27.2944 6.89212 25.8053 11.023C25.7784 11.0902 25.7515 11.1632 25.7266 11.2363C25.7246 11.2439 25.7227 11.2497 25.7189 11.2555C25.6939 11.3266 25.6689 11.4015 25.6439 11.4803C25.6401 11.4918 25.6363 11.5014 25.6343 11.5129C25.6094 11.5898 25.5863 11.6686 25.5613 11.7492C25.5575 11.7608 25.5556 11.7704 25.5517 11.7819C25.5267 11.8645 25.5037 11.951 25.4806 12.0374C25.4806 12.0432 25.4787 12.0471 25.4768 12.0528C25.4537 12.1412 25.4288 12.2296 25.4076 12.318C25.4076 12.3237 25.4057 12.3295 25.4038 12.3333C25.3807 12.4217 25.3596 12.512 25.3365 12.6004C25.3327 12.6119 25.3308 12.6254 25.3269 12.6369C25.3058 12.7234 25.2847 12.8117 25.2654 12.8982C25.2616 12.9117 25.2597 12.9251 25.2558 12.9386C25.2366 13.025 25.2174 13.1115 25.1982 13.196C25.1963 13.2075 25.1944 13.2171 25.1905 13.2287C25.1521 13.4074 25.1156 13.5803 25.081 13.7455C25.081 13.7532 25.0771 13.7628 25.0752 13.7705C25.0599 13.8512 25.0426 13.928 25.0291 14.003C25.0291 14.0126 25.0253 14.0203 25.0234 14.0299C25.008 14.1048 24.9945 14.1778 24.9811 14.247C24.9811 14.2527 24.9792 14.2585 24.9772 14.2643C24.9638 14.3354 24.9503 14.4026 24.9388 14.4641C24.9388 14.4641 24.9388 14.466 24.9388 14.4679C24.9023 14.6658 24.8754 14.8195 24.8581 14.9137L24.8466 14.9521C24.4969 16.1472 23.3941 16.5968 22.4565 16.5103L22.4584 16.5122ZM34.117 33.2662C32.1227 34.859 30.161 34.3076 28.989 33.2586C27.792 32.1884 27.0388 30.1883 28.2128 28.3284C28.4914 27.8884 28.8641 27.4965 29.3195 27.166C31.0563 25.9095 32.7375 24.2187 34.1766 22.2858C36.999 18.5661 37.7599 14.6562 36.2113 11.828C35.2333 10.0412 33.4676 8.97677 31.5309 8.97677C31.3906 8.97677 31.2485 8.98253 31.1044 8.99406C30.0092 9.08244 28.9871 9.484 28.0725 10.1641C28.0763 10.1584 28.0783 10.1507 28.0821 10.1449C28.1705 9.98354 28.2627 9.82599 28.3569 9.67421C28.3742 9.64539 28.3934 9.61657 28.4107 9.58775C28.5048 9.43981 28.6009 9.29571 28.7008 9.15545C28.7181 9.13047 28.7373 9.10549 28.7565 9.0786C28.8603 8.93642 28.964 8.8 29.0735 8.66743C29.0831 8.65398 29.0947 8.64245 29.1062 8.629C29.2138 8.50027 29.3233 8.37539 29.4347 8.25627C29.4463 8.24282 29.4578 8.23129 29.4693 8.21784C29.5827 8.0968 29.6999 7.98344 29.8171 7.872C29.8382 7.85279 29.8593 7.83165 29.8786 7.81244C29.9938 7.70484 30.111 7.60301 30.2302 7.50503C30.2513 7.48773 30.2744 7.47044 30.2955 7.45123C30.4165 7.35324 30.5395 7.25909 30.6625 7.17071C30.6759 7.16111 30.6913 7.1515 30.7047 7.13997C30.8296 7.05159 30.9545 6.96897 31.0813 6.8902C31.0909 6.88443 31.1005 6.87867 31.1101 6.87291C31.2389 6.79413 31.3676 6.7192 31.4982 6.65003C31.5194 6.6385 31.5424 6.62698 31.5636 6.61545C31.6904 6.5482 31.8153 6.48672 31.944 6.42908C31.967 6.41755 31.992 6.40794 32.0151 6.39834C32.1438 6.34262 32.2706 6.28882 32.3993 6.24079C32.4166 6.23502 32.4339 6.22734 32.4512 6.22158C32.5819 6.17354 32.7125 6.12935 32.8413 6.09092C32.847 6.09092 32.8547 6.08708 32.8605 6.08516C32.993 6.04673 33.1237 6.01215 33.2543 5.98333C33.2755 5.97949 33.2966 5.97372 33.3177 5.96796C33.4426 5.94106 33.5675 5.918 33.6924 5.89879C33.7155 5.89495 33.7404 5.89111 33.7635 5.88726C33.8884 5.86997 34.0113 5.8546 34.1324 5.84499C34.1516 5.84499 34.1708 5.84307 34.1881 5.84115C34.3149 5.83154 34.4417 5.8277 34.5647 5.82578C34.5647 5.82578 34.5647 5.82578 34.5666 5.82578H34.607C34.607 5.82578 34.6146 5.82578 34.6204 5.82578C34.7626 5.82002 34.9067 5.8181 35.0489 5.82194C35.0854 5.82194 35.1219 5.8277 35.1584 5.8277C35.2717 5.83347 35.3851 5.83923 35.4985 5.85268C35.533 5.85652 35.5657 5.86229 35.6003 5.86613C35.7194 5.8815 35.8385 5.89687 35.9577 5.918C35.9826 5.92185 36.0076 5.92761 36.0345 5.93337C36.1632 5.95835 36.2939 5.98717 36.4226 6.01984C36.438 6.02368 36.4534 6.02752 36.4687 6.03136C36.6109 6.06787 36.7531 6.11014 36.8933 6.15817C36.8972 6.15817 36.901 6.16009 36.903 6.16201C38.1115 6.56549 39.2892 7.31866 40.3306 8.36002C40.3498 8.37923 40.3671 8.39844 40.3863 8.41766C40.4901 8.52333 40.5919 8.629 40.6918 8.74044C40.7341 8.78655 40.7744 8.83459 40.8167 8.88262C40.8897 8.96524 40.9608 9.04785 41.0319 9.13431C41.1337 9.25728 41.2317 9.38217 41.3297 9.50897C41.3681 9.56085 41.4085 9.60888 41.4469 9.66076C41.5603 9.81447 41.6698 9.97201 41.7774 10.1315C41.81 10.1814 41.8446 10.2295 41.8773 10.2794C41.9791 10.4351 42.0771 10.5926 42.1712 10.7521C42.2001 10.8001 42.227 10.8462 42.2558 10.8943C42.3557 11.0672 42.4518 11.242 42.5421 11.4188C42.5574 11.4476 42.5709 11.4764 42.5862 11.5052C42.6862 11.7051 42.7841 11.9049 42.8744 12.1085C43.5469 13.6283 43.9235 15.2672 43.9696 16.8927C43.9696 16.9061 43.9696 16.9176 43.9696 16.9311C43.9754 17.1386 43.9735 17.3442 43.9696 17.5517C43.9696 17.5939 43.9677 17.6343 43.9658 17.6766C43.9581 17.8591 43.9466 18.0416 43.9312 18.2241C43.9254 18.2875 43.9197 18.349 43.912 18.4124C43.8947 18.5796 43.8755 18.7448 43.8505 18.9101C43.8409 18.9792 43.8274 19.0484 43.8159 19.1195C43.789 19.2847 43.7583 19.448 43.7237 19.6113C43.6219 20.084 43.4912 20.547 43.3279 21.0024C41.81 25.4253 38.6264 29.6657 34.117 33.2624V33.2662Z" fill="#0F7FFF"/>
<path d="M165.74 26.6137H163.713V24.6655C163.298 25.3322 162.702 25.8817 161.926 26.3159C161.152 26.7482 160.335 26.9653 159.478 26.9653C157.928 26.9653 156.702 26.2756 155.803 24.8941C154.901 23.5127 154.452 21.7624 154.452 19.6393C154.452 17.6565 154.921 16.0137 155.86 14.7091C156.8 13.4065 158.045 12.7532 159.595 12.7532C161.301 12.7532 162.673 13.4468 163.713 14.8321V8.28613H165.74V26.6156V26.6137ZM163.713 22.4694V16.8457C162.742 15.2875 161.574 14.5074 160.206 14.5074C159.09 14.5074 158.206 15.0031 157.557 15.9945C156.907 16.9859 156.583 18.2406 156.583 19.7546C156.583 21.2686 156.888 22.602 157.499 23.6184C158.11 24.6367 158.948 25.1439 160.012 25.1439C160.523 25.1439 161.038 25.0056 161.557 24.7289C162.078 24.4522 162.566 24.0353 163.025 23.4819C163.484 22.9286 163.713 22.5904 163.713 22.4694Z" fill="#0F7FFF"/>
<path d="M180.365 19.9099H171.077C171.077 21.4431 171.521 22.7073 172.409 23.7026C173.296 24.6978 174.386 25.1954 175.675 25.1954C176.964 25.1954 178.173 24.9745 179.481 24.5326L179.833 26.1561C178.637 26.6922 177.243 26.9611 175.65 26.9611C173.64 26.9611 172.02 26.3156 170.791 25.0264C169.561 23.7352 168.946 21.9964 168.946 19.8042C168.946 17.6119 169.498 15.9442 170.602 14.6665C171.707 13.3889 173.133 12.751 174.883 12.751C176.441 12.751 177.746 13.3447 178.793 14.5301C179.84 15.7175 180.365 17.2968 180.365 19.272V19.9079V19.9099ZM178.157 18.2614C178.157 17.2046 177.829 16.315 177.17 15.5926C176.511 14.8702 175.775 14.5071 174.962 14.5071C173.915 14.5071 173.046 14.8529 172.357 15.5465C171.669 16.2401 171.285 17.1451 171.208 18.2614H178.157Z" fill="#0F7FFF"/>
<path d="M194.108 13.0781L188.976 26.6139H187.132L182.027 13.0781H184.234L188.066 23.8472L191.897 13.0781H194.104H194.108Z" fill="#0F7FFF"/>
<path d="M207.202 19.9099H197.914C197.914 21.4431 198.358 22.7073 199.246 23.7026C200.134 24.6978 201.223 25.1954 202.512 25.1954C203.801 25.1954 205.01 24.9745 206.318 24.5326L206.67 26.1561C205.475 26.6922 204.08 26.9611 202.487 26.9611C200.478 26.9611 198.858 26.3156 197.628 25.0264C196.399 23.7352 195.784 21.9964 195.784 19.8042C195.784 17.6119 196.335 15.9442 197.44 14.6665C198.545 13.3889 199.97 12.751 201.721 12.751C203.279 12.751 204.583 13.3447 205.631 14.5301C206.678 15.7175 207.202 17.2968 207.202 19.272V19.9079V19.9099ZM204.995 18.2614C204.995 17.2046 204.666 16.315 204.007 15.5926C203.348 14.8702 202.612 14.5071 201.799 14.5071C200.752 14.5071 199.884 14.8529 199.194 15.5465C198.506 16.2401 198.122 17.1451 198.045 18.2614H204.995Z" fill="#0F7FFF"/>
<path d="M217.574 26.6137H212.04V10.0384H208.507V8.28418H214.067V24.8595H217.574V26.6137Z" fill="#0F7FFF"/>
<path d="M226.147 12.7529C228.008 12.7529 229.49 13.4023 230.589 14.7012C231.688 16 232.239 17.71 232.239 19.833C232.239 21.9561 231.69 23.6949 230.589 25.0033C229.49 26.3118 228.008 26.965 226.147 26.965C224.285 26.965 222.794 26.3137 221.697 25.0091C220.602 23.7064 220.054 21.9811 220.054 19.833C220.054 17.685 220.603 15.9904 221.704 14.6954C222.803 13.4004 224.285 12.7529 226.147 12.7529ZM226.147 25.1974C227.376 25.1974 228.346 24.6786 229.055 23.6392C229.766 22.5998 230.12 21.3394 230.12 19.8599C230.12 18.3017 229.768 17.0202 229.067 16.0154C228.366 15.0105 227.392 14.509 226.145 14.509C224.898 14.509 223.914 15.0047 223.222 15.9961C222.529 16.9875 222.183 18.2768 222.183 19.8599C222.183 21.4431 222.534 22.6324 223.236 23.6603C223.937 24.6863 224.907 25.1993 226.145 25.1993L226.147 25.1974Z" fill="#0F7FFF"/>
<path d="M237.336 14.8328C237.786 14.2084 238.395 13.7069 239.162 13.3265C239.928 12.9461 240.735 12.7559 241.584 12.7559C243.143 12.7559 244.366 13.3995 245.254 14.6849C246.142 15.9702 246.586 17.6437 246.586 19.7053C246.586 21.7669 246.121 23.5134 245.189 24.8948C244.257 26.2763 243.004 26.966 241.429 26.966C240.589 26.966 239.803 26.7566 239.071 26.3358C238.339 25.9151 237.761 25.3598 237.336 24.6662V31.9673H235.309V13.0806H237.336V14.8347V14.8328ZM237.336 16.8464V22.4701C237.717 23.2329 238.234 23.8688 238.881 24.3799C239.531 24.891 240.201 25.1465 240.895 25.1465C241.986 25.1465 242.854 24.6355 243.5 23.6133C244.146 22.5912 244.468 21.3231 244.468 19.8071C244.468 18.2912 244.161 16.9751 243.546 15.9875C242.931 15 242.074 14.5062 240.973 14.5062C239.544 14.5062 238.332 15.2863 237.336 16.8445V16.8464Z" fill="#0F7FFF"/>
<path d="M260.483 19.9099H251.195C251.195 21.4431 251.639 22.7073 252.526 23.7026C253.414 24.6978 254.503 25.1954 255.793 25.1954C257.082 25.1954 258.29 24.9745 259.599 24.5326L259.95 26.1561C258.755 26.6922 257.361 26.9611 255.768 26.9611C253.758 26.9611 252.138 26.3156 250.909 25.0264C249.679 23.7352 249.064 21.9964 249.064 19.8042C249.064 17.6119 249.616 15.9442 250.72 14.6665C251.825 13.3889 253.251 12.751 255.001 12.751C256.559 12.751 257.864 13.3447 258.911 14.5301C259.958 15.7175 260.483 17.2968 260.483 19.272V19.9079V19.9099ZM258.275 18.2614C258.275 17.2046 257.947 16.315 257.287 15.5926C256.628 14.8702 255.893 14.5071 255.08 14.5071C254.033 14.5071 253.164 14.8529 252.475 15.5465C251.787 16.2401 251.402 17.1451 251.326 18.2614H258.275Z" fill="#0F7FFF"/>
<path d="M273.452 13.4408L272.633 15.389C271.742 14.999 270.971 14.8049 270.322 14.8049C269.724 14.8049 269.14 14.9759 268.568 15.3179C267.997 15.6599 267.47 16.1498 266.99 16.7858C266.51 17.4218 266.27 17.7791 266.27 17.8579V26.6134H264.256V13.0776H266.27V15.8194C267.351 13.7751 268.754 12.7529 270.477 12.7529C271.5 12.7529 272.491 12.9816 273.452 13.4408Z" fill="#0F7FFF"/>
<path d="M284.937 15.0154C283.802 14.6427 282.733 14.4563 281.729 14.4563C280.63 14.4563 279.759 14.6407 279.118 15.0077C278.476 15.3766 278.157 15.8666 278.157 16.4814C278.157 16.8714 278.305 17.2115 278.599 17.5016C278.893 17.7917 279.483 18.0626 280.366 18.3143L282.301 18.8734C283.193 19.1251 283.921 19.4249 284.484 19.7765C285.047 20.1281 285.469 20.5508 285.75 21.0503C286.031 21.5479 286.173 22.1263 286.173 22.7853C286.173 24.0764 285.631 25.0947 284.549 25.844C283.467 26.5934 282.09 26.968 280.418 26.968C278.747 26.968 277.383 26.7163 276.301 26.2149L276.691 24.4607C277.824 24.9987 279.043 25.2657 280.341 25.2657C281.467 25.2657 282.382 25.0563 283.089 24.6355C283.794 24.2147 284.148 23.6595 284.148 22.9659C284.148 22.499 283.973 22.0801 283.621 21.7132C283.27 21.3443 282.445 20.9619 281.146 20.5642C280.099 20.2434 279.329 20.0032 278.835 19.8437C278.341 19.6842 277.882 19.4479 277.458 19.1367C277.033 18.8254 276.71 18.4527 276.489 18.0204C276.268 17.5881 276.159 17.102 276.159 16.5659C276.159 15.3978 276.67 14.4698 277.692 13.7858C278.714 13.1018 280.069 12.7598 281.757 12.7598C282.849 12.7598 284.061 12.9461 285.395 13.3189L284.939 15.0212L284.937 15.0154Z" fill="#0F7FFF"/>
</g>
<defs>
<clipPath id="clip0_1626_41185">
<rect width="286.173" height="36" fill="white"/>
</clipPath>
</defs>
</svg>
