<svg width="382" height="48" viewBox="0 0 382 48" fill="none" xmlns="http://www.w3.org/2000/svg">
<g clip-path="url(#clip0_1632_155560)">
<path d="M92.9805 17.1292C102.598 17.1112 99.4612 29.3686 99.9554 35.4652H94.4477V24.9772C94.4528 23.254 93.5771 22.0403 91.8052 22.0505C89.8541 22.048 88.9323 23.487 88.9425 25.4023V35.4627H83.4348V24.9747C83.4399 23.2514 82.5642 22.0377 80.7923 22.048C78.8412 22.0454 77.9194 23.4844 77.9296 25.3997V35.4601H72.4219V17.6234H77.9296V19.2647C79.745 16.402 85.8391 16.3431 87.6597 19.4798C88.7863 17.9101 90.5608 17.1241 92.9831 17.1241" fill="#020303"/>
<path d="M118.968 33.235C127.868 23.8301 114.374 11.4243 105.164 19.8587C96.2632 29.2611 109.757 41.672 118.968 33.235ZM109.053 29.5786C105.207 25.5124 110.963 19.7333 115.075 23.5126C118.921 27.5788 113.165 33.3579 109.053 29.5786Z" fill="#020303"/>
<path d="M129.955 35.4682H124.104V17.5316H129.663V21.8538C130.982 17.3421 134.533 16.0926 137.985 17.7646L136.39 23.2877C128.408 20.1587 130.139 29.666 129.957 35.4656L129.955 35.4682Z" fill="#020303"/>
<path d="M152.006 20.1924C152.109 19.1963 150.713 17.2017 146.537 17.13C141.595 16.9917 137.629 21.6263 137.762 26.5451C137.601 31.4844 141.646 36.0575 146.537 35.9628C148.885 35.9628 151.31 35.146 152.006 33.3536V35.466H157.514V17.6293H152.006V20.1924ZM144.481 29.7202C140.597 25.3237 146.36 19.5625 150.798 23.37C154.682 27.7665 148.916 33.5303 144.481 29.7202Z" fill="#020303"/>
<path d="M167.093 9.4248H161.585V35.4656H167.093V9.4248Z" fill="#020303"/>
<path d="M176.316 15.1151C179.409 12.0886 174.616 7.62298 171.653 10.5855C168.563 13.6121 173.351 18.0751 176.316 15.1151ZM171.231 35.4664H176.739V17.6296H171.231V35.4664Z" fill="#020303"/>
<path d="M185.997 22.8368C187.16 24.8673 192.437 24.1836 194.091 27.0258C199.31 36.4102 182.484 39.1116 179.499 31.7142L184.272 29.0742C184.953 32.4875 191.902 31.1176 188.438 29.1792C187.006 28.6262 185.06 28.2805 183.537 27.5917C179.85 26.3319 179.238 20.7909 182.418 18.6528C186 15.9822 192.373 16.8092 194.696 20.9368L189.997 23.3975C189.434 21.7972 186.197 21.0597 185.995 22.8342L185.997 22.8368Z" fill="#020303"/>
<path d="M56.1036 5.91413C49.7176 -1.71886 37.427 -1.81616 30.5801 5.15877C18.1051 -6.76313 -0.88905 3.52002 0.383541 20.2532H0.388662C0.872606 30.1318 7.51466 37.8185 16.9042 43.0369C18.1358 43.6822 19.603 43.4056 20.5197 42.3097C21.8102 40.8349 21.2289 38.8888 19.9768 37.6265C17.6903 34.4386 15.1374 30.6977 13.7086 26.6238C11.6627 22.0865 12.9609 14.6968 18.3714 14.2871C21.8256 14.0285 23.7076 17.8693 25.7201 21.134H25.7227C27.3179 25.5842 34.4747 25.2437 35.6704 20.6757C37.4372 15.4547 40.7736 14.323 42.0052 14.305C49.0595 14.7147 48.5295 22.8112 44.0716 28.3368C41.8004 31.8729 38.3744 33.5373 36.0161 36.5434C32.8743 41.2445 36.6025 47.9916 42.4021 47.9967C50.939 46.7907 59.2403 33.5962 60.8713 26.7416C62.9121 19.6412 61.071 11.1991 56.1036 5.91157V5.91413ZM11.76 3.68133C17.4957 1.02861 24.5909 2.39082 29.0412 6.88202C27.5356 8.69744 26.4601 10.7356 25.8431 12.9403C22.5374 4.78749 11.6653 3.10265 5.58657 8.98166C7.14082 6.67973 9.30705 4.80285 11.7626 3.68133H11.76ZM18.3688 11.9852C11.2889 12.2156 8.87687 21.4669 11.545 27.4202C13.2682 32.1828 16.0515 36.2259 18.799 39.8644C19.2522 40.6326 18.5865 41.2804 17.9796 40.9987C9.1739 36.0543 2.68035 28.8029 2.73924 19.4466C3.5663 7.86527 19.2368 2.6648 23.9841 14.474C22.6193 13.0145 20.8935 11.9826 18.3663 11.9826L18.3688 11.9852ZM30.2958 22.0276C26.5907 21.769 27.3845 16.0308 28.0118 13.7264C31.8014 0.47553 50.0658 -1.79567 56.6771 10.5487C50.2553 2.36265 38.2002 4.54168 34.7538 14.7096C33.5657 17.242 34.2519 22.445 30.2958 22.0276ZM45.8307 44.3556C40.9119 48.24 35.1276 42.7962 37.9621 37.775C40.4202 35.025 43.6696 33.1481 45.9101 29.7221C49.6715 24.7649 50.6855 19.5542 48.6217 15.785C46.522 11.7522 41.2396 10.8329 37.7778 13.5676C48.1992 -3.95165 74.4806 21.979 45.8307 44.3556Z" fill="#0F7FFF"/>
<path d="M221.244 35.4915H218.542V32.8951C212.881 39.8265 205.801 34.2803 206.2 26.1967C205.78 18.6354 213.227 13.458 218.542 19.7902V11.0664H221.244V35.494V35.4915ZM218.545 29.9684V22.4736C214.794 16.3309 208.63 20.1128 209.04 26.3529C208.738 33.4865 214.904 36.3748 218.545 29.9709V29.9684Z" fill="#0F7FFF"/>
<path d="M240.737 26.5574H228.359C228.364 33.1841 234.164 34.8561 239.559 32.7206L240.028 34.8843C233.311 37.8622 225.24 34.8075 225.522 26.4191C225.522 23.5564 226.257 21.275 227.729 19.5722C233.383 13.6394 241.551 18.5864 240.739 26.5574H240.737ZM237.795 24.3604C237.749 17.6518 228.805 17.9155 228.533 24.3604H237.795Z" fill="#0F7FFF"/>
<path d="M259.053 17.4521L252.213 35.4912H249.755L242.952 17.4521H245.894L251 31.804L256.105 17.4521H259.047H259.053Z" fill="#0F7FFF"/>
<path d="M276.503 26.5574H264.125C264.13 33.1866 269.93 34.8561 275.325 32.7206L275.793 34.8843C269.077 37.8622 261.006 34.8075 261.285 26.4191C261.285 23.5564 262.02 21.275 263.493 19.5722C269.146 13.6394 277.314 18.5864 276.503 26.5574ZM273.561 24.3604C273.515 17.6518 264.571 17.9155 264.299 24.3604H273.561Z" fill="#0F7FFF"/>
<path d="M290.324 35.4911H282.95V13.4013H278.241V11.0635H285.651V33.1533H290.324V35.4911Z" fill="#0F7FFF"/>
<path d="M301.75 17.0192C312.599 16.6172 312.571 36.3488 301.75 35.957C290.916 36.3693 290.903 16.6018 301.75 17.0192ZM301.75 33.6039C308.845 33.5219 308.919 19.3391 301.75 19.357C294.585 19.293 294.66 33.5706 301.75 33.6039Z" fill="#0F7FFF"/>
<path d="M316.662 19.7903C322.275 13.5938 329.393 18.3206 328.989 26.2813C329.416 34.1114 322.062 39.9008 316.662 32.8952V42.6253H313.961V17.4551H316.662V19.7929V19.7903ZM316.662 22.4738V29.9685C318.071 33.2741 322.726 35.1817 324.877 31.492C327.089 28.0225 326.83 19.5445 321.509 19.3576C319.604 19.3576 317.989 20.3972 316.662 22.4738Z" fill="#0F7FFF"/>
<path d="M347.509 26.5574H335.131C335.136 33.1841 340.936 34.8561 346.331 32.7206L346.8 34.8843C340.083 37.8622 332.013 34.8075 332.294 26.4191C332.294 23.5564 333.029 21.275 334.501 19.5722C340.155 13.6394 348.323 18.5864 347.512 26.5574H347.509ZM344.567 24.3604C344.521 17.6518 335.577 17.9155 335.305 24.3604H344.567Z" fill="#0F7FFF"/>
<path d="M364.793 17.9361L363.702 20.5325C360.179 18.5404 356.743 20.7553 355.219 23.8228V35.4912H352.536V17.4522H355.219V21.1061C357.367 16.7711 361.073 16.1847 364.793 17.9387V17.9361Z" fill="#0F7FFF"/>
<path d="M380.1 20.0311C373.107 17.3271 367.161 22.356 374.006 24.4275C375.578 24.8987 378.284 25.5439 379.493 26.3735C382.502 28.0584 382.461 32.6443 379.58 34.4572C376.966 36.4544 371.368 36.2854 368.588 34.9514L369.107 32.6136C372.021 34.5007 381.6 34.1141 378.343 28.952C377.708 28.0609 373.112 26.86 371.962 26.4606C368.244 25.5951 366.987 20.4868 370.439 18.3846C373.125 16.5999 377.242 16.7561 380.704 17.7624L380.097 20.0311H380.1Z" fill="#0F7FFF"/>
</g>
<defs>
<clipPath id="clip0_1632_155560">
<rect width="381.424" height="48" fill="white" transform="translate(0.322021)"/>
</clipPath>
</defs>
</svg>
