<svg xmlns="http://www.w3.org/2000/svg" width="24" height="25" fill="none"><path stroke="#92899C" stroke-linecap="round" stroke-linejoin="round" stroke-width="1.42" d="M4.126 11.697v-6.49a2.392 2.392 0 0 1 2.393-2.393h12.793a2.392 2.392 0 0 1 2.393 2.393v8.686a2.392 2.392 0 0 1-2.392 2.392h-3.759M4.344 6.485h16.804"/><path fill="#92899C" d="M6.518 5.207a.546.546 0 1 0 0-1.093.546.546 0 0 0 0 1.093ZM8.573 5.207a.546.546 0 1 0 0-1.093.546.546 0 0 0 0 1.093ZM10.616 5.207a.546.546 0 1 0 0-1.093.546.546 0 0 0 0 1.093Z"/><path stroke="#92899C" stroke-linecap="round" stroke-linejoin="round" stroke-width="1.42" d="M14.154 12.374h4.354M12.56 9.599h5.948"/><path fill="#92899C" stroke="#92899C" stroke-miterlimit="10" stroke-width=".219" d="M10.222 16.908a2.299 2.299 0 0 1-2.305 2.305 2.299 2.299 0 0 1-2.305-2.305c0-.24.044-.459.11-.666a1.156 1.156 0 0 0 2.207-.48c0-.46-.274-.864-.667-1.04.218-.065.437-.108.666-.108a2.299 2.299 0 0 1 2.305 2.305l-.01-.011Zm3.42-.197a.618.618 0 0 1 0 .394c-.076.23-.175.448-.284.655-1.093 2.305-3.168 3.759-5.452 3.759-1.715 0-3.332-.82-4.48-2.218a6.34 6.34 0 0 1-1.048-1.705c-.066-.164-.142-.327-.197-.491a.619.619 0 0 1 0-.394c.066-.163.131-.338.197-.491a6.515 6.515 0 0 1 1.049-1.705c1.158-1.398 2.764-2.218 4.48-2.218 2.283 0 4.348 1.454 5.451 3.748.098.218.197.437.284.666Zm-1.169.197s-.044-.087-.055-.131c-.065-.164-.152-.328-.229-.48a5.31 5.31 0 0 1-.131-.252c-.94-1.606-2.48-2.6-4.14-2.6-.372 0-.744.065-1.104.163a5.266 5.266 0 0 0-2 1.137c-.043.033-.076.065-.12.098s-.076.077-.12.12a6.33 6.33 0 0 0-1.202 1.858c0 .032-.022.054-.033.076 0 .022.022.055.033.077a5.92 5.92 0 0 0 1.202 1.857c.044.044.076.087.12.131.033.033.077.066.12.098a5.505 5.505 0 0 0 2 1.137c.36.098.72.163 1.103.163 1.672 0 3.201-.994 4.14-2.6.045-.076.088-.164.132-.251.076-.153.153-.306.23-.48.021-.044.043-.088.054-.132v.011Z"/></svg>