<svg width="16" height="13" viewBox="0 0 16 13" fill="none" xmlns="http://www.w3.org/2000/svg">
<path d="M2.44758 0C2.44715 0 2.44666 0 2.44623 0C2.2949 0 2.15257 0.05899 2.0451 0.166196C1.93644 0.274586 1.87659 0.41891 1.87659 0.572553V9.15789C1.87659 9.47272 2.13372 9.72948 2.44984 9.73029C3.78253 9.73346 6.01532 10.0112 7.55563 11.6231V2.63834C7.55563 2.53162 7.52837 2.43136 7.47693 2.3484C6.21271 0.312459 3.78329 0.00312459 2.44758 0Z" fill="url(#paint0_linear_3_529)"/>
<path d="M14.1236 9.15795V0.572553C14.1236 0.41891 14.0637 0.274586 13.9551 0.166196C13.8476 0.05899 13.7051 0 13.554 0C13.5535 0 13.553 0 13.5526 0C12.2169 0.00317846 9.78751 0.312512 8.52323 2.34845C8.47179 2.43141 8.44458 2.53167 8.44458 2.63839V11.6231C9.98489 10.0112 12.2177 9.73346 13.5504 9.73028C13.8664 9.72948 14.1236 9.47272 14.1236 9.15795Z" fill="url(#paint1_linear_3_529)"/>
<path opacity="0.4" d="M15.4275 1.97998H15.0123V9.15797C15.0123 9.96179 14.3574 10.6173 13.5523 10.6192C12.4219 10.6219 10.5581 10.843 9.23804 12.0923C11.521 11.5334 13.9277 11.8967 15.2993 12.2093C15.4706 12.2483 15.6475 12.208 15.7847 12.0986C15.9215 11.9895 15.9999 11.8265 15.9999 11.6514V2.55243C16 2.23679 15.7431 1.97998 15.4275 1.97998Z" fill="url(#paint2_linear_3_529)"/>
<path opacity="0.4" d="M0.987585 9.15796V1.97998H0.572446C0.256863 1.97998 0 2.23679 0 2.55243V11.6513C0 11.8264 0.0784379 11.9894 0.215165 12.0985C0.35227 12.2078 0.529079 12.2482 0.700608 12.2091C2.07219 11.8965 4.47893 11.5332 6.76182 12.0922C5.44184 10.8429 3.57797 10.6219 2.44757 10.6192C1.64256 10.6173 0.987585 9.96179 0.987585 9.15796Z" fill="url(#paint3_linear_3_529)"/>
<defs>
<linearGradient id="paint0_linear_3_529" x1="7.55563" y1="-3.28022e-07" x2="0.411799" y2="4.86828" gradientUnits="userSpaceOnUse">
<stop stop-color="#9121C2"/>
<stop offset="1" stop-color="#BB399C"/>
</linearGradient>
<linearGradient id="paint1_linear_3_529" x1="14.1236" y1="-3.28022e-07" x2="6.97976" y2="4.86821" gradientUnits="userSpaceOnUse">
<stop stop-color="#9121C2"/>
<stop offset="1" stop-color="#BB399C"/>
</linearGradient>
<linearGradient id="paint2_linear_3_529" x1="15.9999" y1="1.97998" x2="9.25816" y2="8.1868" gradientUnits="userSpaceOnUse">
<stop stop-color="#9121C2"/>
<stop offset="1" stop-color="#BB399C"/>
</linearGradient>
<linearGradient id="paint3_linear_3_529" x1="6.76182" y1="1.97998" x2="0.0201456" y2="8.18675" gradientUnits="userSpaceOnUse">
<stop stop-color="#9121C2"/>
<stop offset="1" stop-color="#BB399C"/>
</linearGradient>
</defs>
</svg>
