<svg width="22" height="16" viewBox="0 0 22 16" fill="none" xmlns="http://www.w3.org/2000/svg">
  <path
    d="M10.9964 15.9988C12.4007 15.9983 13.7801 15.6286 14.9964 14.9268C15.0611 14.8863 15.116 14.8321 15.1573 14.7679C15.1986 14.7038 15.2253 14.6314 15.2354 14.5558C15.2459 14.4797 15.2387 14.4023 15.2144 14.3294C15.1902 14.2566 15.1494 14.1903 15.0954 14.1358L14.3654 13.4048C14.2898 13.3283 14.1916 13.2783 14.0853 13.2621C13.979 13.2459 13.8704 13.2644 13.7754 13.3148C12.919 13.7675 11.9651 14.0043 10.9964 14.0048V14.0048C10.208 14.0048 9.42728 13.8494 8.69893 13.5475C7.97059 13.2456 7.30889 12.8031 6.75166 12.2453C6.19443 11.6875 5.7526 11.0254 5.45142 10.2967C5.15025 9.56808 4.99563 8.78722 4.99642 7.99878H7.36542C7.4313 7.99863 7.49648 7.98528 7.55711 7.95952C7.61774 7.93375 7.67259 7.8961 7.71842 7.84878L7.91842 7.64878C7.96544 7.60228 8.00276 7.54692 8.02824 7.4859C8.05371 7.42487 8.06683 7.35941 8.06683 7.29328C8.06683 7.22715 8.05371 7.16169 8.02824 7.10066C8.00276 7.03964 7.96544 6.98428 7.91842 6.93778L4.38842 3.39478C4.29339 3.3023 4.16603 3.25055 4.03342 3.25055C3.90082 3.25055 3.77345 3.3023 3.67842 3.39478L0.148422 6.93778C0.101407 6.98428 0.0640822 7.03964 0.0386086 7.10066C0.0131349 7.16169 1.71661e-05 7.22715 1.71661e-05 7.29328C1.71661e-05 7.35941 0.0131349 7.42487 0.0386086 7.4859C0.0640822 7.54692 0.101407 7.60228 0.148422 7.64878L0.348421 7.84878C0.394266 7.89636 0.44926 7.93417 0.510096 7.95995C0.570931 7.98573 0.63635 7.99893 0.702421 7.99878H2.99642C2.99642 10.1205 3.83928 12.1553 5.33957 13.6556C6.83986 15.1559 8.87469 15.9988 10.9964 15.9988V15.9988ZM17.9634 12.7478C18.0292 12.7483 18.0943 12.7358 18.1553 12.7111C18.2162 12.6864 18.2716 12.6499 18.3184 12.6038L21.8484 9.05978C21.8954 9.01328 21.9328 8.95792 21.9582 8.8969C21.9837 8.83587 21.9968 8.7704 21.9968 8.70428C21.9968 8.63815 21.9837 8.57268 21.9582 8.51166C21.9328 8.45064 21.8954 8.39528 21.8484 8.34878L21.6484 8.14878C21.6028 8.10144 21.5481 8.06377 21.4877 8.038C21.4272 8.01223 21.3622 7.99889 21.2964 7.99878H18.9964C18.9962 6.59459 18.6264 5.21519 17.9242 3.9992C17.2219 2.78321 16.212 1.77348 14.9959 1.07148C13.7798 0.369475 12.4003 -6.99765e-05 10.9961 -1.71661e-05C9.59193 3.56442e-05 8.21249 0.369684 6.99642 1.07178C6.92809 1.11023 6.86925 1.16352 6.82426 1.22773C6.77926 1.29194 6.74924 1.36543 6.73642 1.44278C6.72582 1.51876 6.73284 1.59616 6.75694 1.66899C6.78105 1.74182 6.82158 1.80813 6.87542 1.86278L7.61642 2.60378C7.69269 2.67876 7.79065 2.72781 7.89638 2.74397C8.00211 2.76012 8.11024 2.74256 8.20542 2.69378C9.05786 2.23433 10.0111 1.9938 10.9794 1.99378H10.9964C12.5878 1.99643 14.1131 2.6301 15.2379 3.75583C16.3627 4.88156 16.9951 6.40743 16.9964 7.99878H14.6324C14.5665 7.99876 14.5013 8.01203 14.4406 8.03781C14.38 8.06358 14.3252 8.10132 14.2794 8.14878L14.0794 8.34878C14.0324 8.39528 13.9951 8.45064 13.9696 8.51166C13.9441 8.57268 13.931 8.63815 13.931 8.70428C13.931 8.7704 13.9441 8.83587 13.9696 8.8969C13.9951 8.95792 14.0324 9.01328 14.0794 9.05978L17.6084 12.5988C17.6548 12.6458 17.7101 12.6832 17.771 12.7088C17.8319 12.7344 17.8973 12.7476 17.9634 12.7478Z"
    fill="#877D91" />
  <path
    d="M17.9634 12.7478C18.0292 12.7483 18.0943 12.7358 18.1553 12.7111C18.2162 12.6864 18.2716 12.6499 18.3184 12.6038L21.8484 9.05979C21.8954 9.01329 21.9328 8.95793 21.9582 8.8969C21.9837 8.83588 21.9968 8.77041 21.9968 8.70429C21.9968 8.63816 21.9837 8.57269 21.9582 8.51167C21.9328 8.45065 21.8954 8.39529 21.8484 8.34879L21.6484 8.14879C21.6028 8.10145 21.5481 8.06378 21.4877 8.03801C21.4272 8.01224 21.3622 7.9989 21.2964 7.99879H18.9964C18.9962 6.5946 18.6264 5.2152 17.9242 3.99921C17.2219 2.78322 16.212 1.77349 14.9959 1.07149C13.7798 0.369482 12.4003 -6.13935e-05 10.9961 -8.58307e-06C9.59193 4.42273e-05 8.21249 0.369692 6.99642 1.07179C6.92809 1.11024 6.86925 1.16353 6.82426 1.22774C6.77926 1.29195 6.74924 1.36544 6.73642 1.44279C6.72582 1.51877 6.73284 1.59617 6.75694 1.669C6.78105 1.74183 6.82158 1.80814 6.87542 1.86279L7.61642 2.60379C7.69269 2.67877 7.79065 2.72782 7.89638 2.74398C8.00211 2.76013 8.11024 2.74257 8.20542 2.69379C9.05786 2.23434 10.0111 1.99381 10.9794 1.99379H10.9964C12.5878 1.99643 14.1131 2.63011 15.2379 3.75584C16.3627 4.88156 16.9951 6.40743 16.9964 7.99879H14.6324C14.5665 7.99877 14.5013 8.01204 14.4406 8.03781C14.38 8.06359 14.3252 8.10133 14.2794 8.14879L14.0794 8.34879C14.0324 8.39529 13.9951 8.45065 13.9696 8.51167C13.9441 8.57269 13.931 8.63816 13.931 8.70429C13.931 8.77041 13.9441 8.83588 13.9696 8.8969C13.9951 8.95793 14.0324 9.01329 14.0794 9.05979L17.6084 12.5988C17.6548 12.6459 17.7101 12.6833 17.771 12.7088C17.8319 12.7344 17.8973 12.7476 17.9634 12.7478Z"
    fill="#C9C1D0" />
</svg>
