<svg xmlns="http://www.w3.org/2000/svg" width="36" height="36" fill="none"><g stroke-linecap="round" stroke-linejoin="round" stroke-width="2.34" clip-path="url(#a)"><path stroke="#92899C" d="M2.382 7.682h31.237"></path><path stroke="#92899C" d="M17.992 2.356v26.68"></path><path fill="#92899C" stroke="#92899C" d="M26.218 30.053H9.053v3.593h17.165v-3.593Z"></path><path stroke="#92899C" d="M5.604 33.646h24.063"></path><path stroke="#92899C" d="m7.272 7.682-4.275 12.1h8.55l-4.275-12.1Z"></path><path stroke="#92899C" d="M11.548 19.766c0 2.321-1.911 4.197-4.275 4.197-2.365 0-4.276-1.876-4.276-4.197h8.55Z"></path><path stroke="#92899C" d="m28.713 7.682-4.275 12.1h8.55l-4.275-12.1Z"></path><path stroke="#92899C" d="M32.988 19.766c0 2.321-1.91 4.197-4.275 4.197-2.364 0-4.275-1.876-4.275-4.197h8.55Z"></path><path fill="#92899C" stroke="#92899C" d="M17.992 10.13c1.502 0 2.72-1.195 2.72-2.67 0-1.476-1.218-2.671-2.72-2.671-1.503 0-2.72 1.195-2.72 2.67 0 1.476 1.217 2.672 2.72 2.672Z"></path></g><defs><clipPath id="a"><path fill="#92899C" d="M0 0h36v36H0z"></path></clipPath></defs></svg>