<svg width="16" height="16" viewBox="0 0 16 16" fill="none" xmlns="http://www.w3.org/2000/svg">
<path d="M15.8019 16H14.0648C13.9554 16 13.8667 15.9113 13.8667 15.8019V7.68406C13.8667 7.56401 13.964 7.46667 14.0841 7.46667H15.4641C15.7601 7.46667 16 7.70662 16 8.00257V15.8019C16 15.9113 15.9113 16 15.8019 16Z" fill="#D0C9D6"/>
<path d="M1.9352 16H0.198133C0.0886933 16 0 15.9113 0 15.8019V8.00257C0 7.70662 0.239947 7.46667 0.535893 7.46667H1.91595C2.036 7.46667 2.13333 7.56401 2.13333 7.68406V15.8019C2.13333 15.9113 2.04464 16 1.9352 16Z" fill="#D0C9D6"/>
<path d="M12.0854 1.06667H11.4401C11.2961 1.06667 11.1574 0.986667 11.0934 0.853333L10.8747 0.421333C10.7414 0.165333 10.4801 0 10.1867 0H5.80274C5.52007 0 5.25874 0.16 5.13074 0.416L4.90674 0.853333C4.84274 0.986667 4.70407 1.06667 4.56007 1.06667H3.91474C3.52007 1.06667 3.20007 1.38667 3.20007 1.78133V15.8027C3.20007 15.9093 3.29074 16 3.39741 16H6.20274C6.30941 16 6.40007 15.9093 6.40007 15.8027V13.9573C6.40007 13.104 7.02941 12.3307 7.88274 12.272C8.37341 12.2347 8.81607 12.4213 9.13074 12.736C9.41874 13.024 9.60007 13.424 9.60007 13.8667V15.8027C9.60007 15.9093 9.69074 16 9.79741 16H12.6027C12.7094 16 12.8001 15.9093 12.8001 15.8027V1.78133C12.8001 1.38667 12.4801 1.06667 12.0854 1.06667ZM6.93341 10.4213C6.93341 10.56 6.82674 10.6667 6.68807 10.6667H5.57874C5.44007 10.6667 5.33341 10.56 5.33341 10.4213V9.312C5.33341 9.17333 5.44007 9.06667 5.57874 9.06667H6.68807C6.82674 9.06667 6.93341 9.17333 6.93341 9.312V10.4213ZM6.93341 7.22133C6.93341 7.36 6.82674 7.46667 6.68807 7.46667H5.57874C5.44007 7.46667 5.33341 7.36 5.33341 7.22133V6.112C5.33341 5.97333 5.44007 5.86667 5.57874 5.86667H6.68807C6.82674 5.86667 6.93341 5.97333 6.93341 6.112V7.22133ZM6.93341 4.02133C6.93341 4.16 6.82674 4.26667 6.68807 4.26667H5.57874C5.44007 4.26667 5.33341 4.16 5.33341 4.02133V2.912C5.33341 2.77333 5.44007 2.66667 5.57874 2.66667H6.68807C6.82674 2.66667 6.93341 2.77333 6.93341 2.912V4.02133ZM10.6667 10.4213C10.6667 10.56 10.5601 10.6667 10.4214 10.6667H9.31207C9.17341 10.6667 9.06674 10.56 9.06674 10.4213V9.312C9.06674 9.17333 9.17341 9.06667 9.31207 9.06667H10.4214C10.5601 9.06667 10.6667 9.17333 10.6667 9.312V10.4213ZM10.6667 7.22133C10.6667 7.36 10.5601 7.46667 10.4214 7.46667H9.31207C9.17341 7.46667 9.06674 7.36 9.06674 7.22133V6.112C9.06674 5.97333 9.17341 5.86667 9.31207 5.86667H10.4214C10.5601 5.86667 10.6667 5.97333 10.6667 6.112V7.22133ZM10.6667 4.02133C10.6667 4.16 10.5601 4.26667 10.4214 4.26667H9.31207C9.17341 4.26667 9.06674 4.16 9.06674 4.02133V2.912C9.06674 2.77333 9.17341 2.66667 9.31207 2.66667H10.4214C10.5601 2.66667 10.6667 2.77333 10.6667 2.912V4.02133Z" fill="#92899C"/>
</svg>
