<svg width="16" height="16" viewBox="0 0 16 16" fill="none" xmlns="http://www.w3.org/2000/svg">
<path opacity="0.7" d="M10.8728 4.60082C10.3101 1.98731 9.10999 0.333862 8.00005 0.333862C6.8901 0.333862 5.69002 1.98731 5.12732 4.60082H10.8728Z" fill="url(#paint0_linear_3_541)"/>
<path opacity="0.7" d="M4.7998 7.80108C4.79967 8.51462 4.84725 9.22737 4.94221 9.93456H11.0578C11.1528 9.22737 11.2004 8.51462 11.2002 7.80108C11.2004 7.08754 11.1528 6.37479 11.0578 5.6676H4.94221C4.84725 6.37479 4.79967 7.08754 4.7998 7.80108Z" fill="url(#paint1_linear_3_541)"/>
<path opacity="0.7" d="M5.12732 11.0012C5.69002 13.6147 6.8901 15.2682 8.00005 15.2682C9.10999 15.2682 10.3101 13.6147 10.8728 11.0012H5.12732Z" fill="url(#paint2_linear_3_541)"/>
<path opacity="0.4" d="M11.965 4.60085H15.3252C14.8204 3.45184 14.0532 2.43715 13.0854 1.63816C12.1175 0.839166 10.9759 0.278113 9.75208 0C10.7639 0.890194 11.5575 2.53617 11.965 4.60085Z" fill="url(#paint3_linear_3_541)"/>
<path opacity="0.4" d="M15.7088 5.6676H12.1352C12.2232 6.37535 12.2672 7.08788 12.2669 7.80108C12.267 8.51429 12.2228 9.22682 12.1346 9.93456H15.7082C16.0972 8.53883 16.0972 7.06333 15.7082 5.6676H15.7088Z" fill="url(#paint4_linear_3_541)"/>
<path opacity="0.4" d="M9.75208 15.6021C10.9761 15.3241 12.1179 14.7631 13.086 13.9641C14.054 13.1651 14.8213 12.1503 15.3263 11.0012H11.9661C11.5575 13.0659 10.7639 14.7119 9.75208 15.6021Z" fill="url(#paint5_linear_3_541)"/>
<path d="M4.03491 11.0012H0.674683C1.17967 12.1503 1.94697 13.1651 2.91501 13.9641C3.88306 14.7631 5.0249 15.3241 6.24892 15.6021C5.23606 14.7119 4.4424 13.0659 4.03491 11.0012Z" fill="url(#paint6_linear_3_541)"/>
<path d="M6.24795 0C5.02392 0.277962 3.88208 0.838946 2.91404 1.63795C1.94599 2.43695 1.1787 3.45172 0.673706 4.60085H4.03393C4.44249 2.53617 5.23615 0.890194 6.24795 0Z" fill="url(#paint7_linear_3_541)"/>
<path d="M3.73302 7.80108C3.73295 7.08787 3.77713 6.37534 3.8653 5.6676H0.291727C-0.0972423 7.06333 -0.0972423 8.53883 0.291727 9.93456H3.8653C3.77713 9.22682 3.73295 8.51429 3.73302 7.80108Z" fill="url(#paint8_linear_3_541)"/>
<defs>
<linearGradient id="paint0_linear_3_541" x1="10.8728" y1="0.333862" x2="8.53482" y2="4.72456" gradientUnits="userSpaceOnUse">
<stop stop-color="#9121C2"/>
<stop offset="1" stop-color="#BB399C"/>
</linearGradient>
<linearGradient id="paint1_linear_3_541" x1="11.2002" y1="5.6676" x2="9.00748" y2="10.2551" gradientUnits="userSpaceOnUse">
<stop stop-color="#9121C2"/>
<stop offset="1" stop-color="#BB399C"/>
</linearGradient>
<linearGradient id="paint2_linear_3_541" x1="10.8728" y1="11.0012" x2="8.53482" y2="15.3919" gradientUnits="userSpaceOnUse">
<stop stop-color="#9121C2"/>
<stop offset="1" stop-color="#BB399C"/>
</linearGradient>
<linearGradient id="paint3_linear_3_541" x1="15.3252" y1="-1.29843e-07" x2="12.6617" y2="4.50006" gradientUnits="userSpaceOnUse">
<stop stop-color="#9121C2"/>
<stop offset="1" stop-color="#BB399C"/>
</linearGradient>
<linearGradient id="paint4_linear_3_541" x1="15.9999" y1="5.6676" x2="13.2575" y2="9.13258" gradientUnits="userSpaceOnUse">
<stop stop-color="#9121C2"/>
<stop offset="1" stop-color="#BB399C"/>
</linearGradient>
<linearGradient id="paint5_linear_3_541" x1="15.3263" y1="11.0012" x2="12.663" y2="15.5017" gradientUnits="userSpaceOnUse">
<stop stop-color="#9121C2"/>
<stop offset="1" stop-color="#BB399C"/>
</linearGradient>
<linearGradient id="paint6_linear_3_541" x1="6.24892" y1="11.0012" x2="3.58562" y2="15.5017" gradientUnits="userSpaceOnUse">
<stop stop-color="#9121C2"/>
<stop offset="1" stop-color="#BB399C"/>
</linearGradient>
<linearGradient id="paint7_linear_3_541" x1="6.24795" y1="-1.29843e-07" x2="3.58464" y2="4.5005" gradientUnits="userSpaceOnUse">
<stop stop-color="#9121C2"/>
<stop offset="1" stop-color="#BB399C"/>
</linearGradient>
<linearGradient id="paint8_linear_3_541" x1="3.8653" y1="5.6676" x2="1.12282" y2="9.13257" gradientUnits="userSpaceOnUse">
<stop stop-color="#9121C2"/>
<stop offset="1" stop-color="#BB399C"/>
</linearGradient>
</defs>
</svg>
