<svg width="16" height="16" viewBox="0 0 16 16" fill="none" xmlns="http://www.w3.org/2000/svg">
<rect y="0.174927" width="3.41493" height="11.3831" rx="0.25" fill="url(#paint0_linear_3_515)"/>
<rect opacity="0.4" y="12.6963" width="3.41493" height="2.84577" rx="0.25" fill="url(#paint1_linear_3_515)"/>
<rect x="4.55322" y="0.174927" width="3.41493" height="11.3831" rx="0.25" fill="url(#paint2_linear_3_515)"/>
<rect opacity="0.4" x="4.55322" y="12.6963" width="3.41493" height="2.84577" rx="0.25" fill="url(#paint3_linear_3_515)"/>
<rect x="8.53735" y="0.927979" width="3.41493" height="11.3831" rx="0.25" transform="rotate(-15.7694 8.53735 0.927979)" fill="url(#paint4_linear_3_515)"/>
<rect opacity="0.4" x="11.9402" y="12.9783" width="3.41493" height="2.84577" rx="0.25" transform="rotate(-15.7694 11.9402 12.9783)" fill="url(#paint5_linear_3_515)"/>
<defs>
<linearGradient id="paint0_linear_3_515" x1="3.41493" y1="0.174926" x2="-1.93848" y2="2.4149" gradientUnits="userSpaceOnUse">
<stop stop-color="#9121C2"/>
<stop offset="1" stop-color="#BB399C"/>
</linearGradient>
<linearGradient id="paint1_linear_3_515" x1="3.41493" y1="12.6963" x2="1.76002" y2="15.4661" gradientUnits="userSpaceOnUse">
<stop stop-color="#9121C2"/>
<stop offset="1" stop-color="#BB399C"/>
</linearGradient>
<linearGradient id="paint2_linear_3_515" x1="7.96815" y1="0.174926" x2="2.61475" y2="2.4149" gradientUnits="userSpaceOnUse">
<stop stop-color="#9121C2"/>
<stop offset="1" stop-color="#BB399C"/>
</linearGradient>
<linearGradient id="paint3_linear_3_515" x1="7.96815" y1="12.6963" x2="6.31324" y2="15.4661" gradientUnits="userSpaceOnUse">
<stop stop-color="#9121C2"/>
<stop offset="1" stop-color="#BB399C"/>
</linearGradient>
<linearGradient id="paint4_linear_3_515" x1="11.9523" y1="0.927978" x2="6.59888" y2="3.16795" gradientUnits="userSpaceOnUse">
<stop stop-color="#9121C2"/>
<stop offset="1" stop-color="#BB399C"/>
</linearGradient>
<linearGradient id="paint5_linear_3_515" x1="15.3551" y1="12.9783" x2="13.7002" y2="15.7481" gradientUnits="userSpaceOnUse">
<stop stop-color="#9121C2"/>
<stop offset="1" stop-color="#BB399C"/>
</linearGradient>
</defs>
</svg>
