<svg width="21" height="20" viewBox="0 0 21 20" fill="none" xmlns="http://www.w3.org/2000/svg">
<path opacity="0.4" d="M5.90247 2.41645L10.0265 4.83188L14.1504 2.41645L10.0265 0L5.90247 2.41645Z" fill="url(#paint0_linear_108_834)"/>
<path opacity="0.7" d="M14.7367 8.28018V3.44678L10.6127 5.86228V10.6967L14.7367 8.28018Z" fill="url(#paint1_linear_108_834)"/>
<path d="M5.31604 8.28022L9.44022 10.6968V5.86232L5.31604 3.44678V8.28022Z" fill="url(#paint2_linear_108_834)"/>
<path opacity="0.4" d="M11.1794 11.7195L15.3035 14.135L19.4273 11.7195L15.3035 9.3031L11.1794 11.7195Z" fill="url(#paint3_linear_108_834)"/>
<path opacity="0.7" d="M20.0138 17.5834V12.75L15.8898 15.1655V20L20.0138 17.5834Z" fill="url(#paint4_linear_108_834)"/>
<path d="M10.5931 17.5834L14.7173 20V15.1655L10.5931 12.75V17.5834Z" fill="url(#paint5_linear_108_834)"/>
<path opacity="0.4" d="M0.586304 11.7195L4.71033 14.135L8.8342 11.7195L4.71033 9.3031L0.586304 11.7195Z" fill="url(#paint6_linear_108_834)"/>
<path opacity="0.7" d="M9.42066 17.5834V12.75L5.29663 15.1655V20L9.42066 17.5834Z" fill="url(#paint7_linear_108_834)"/>
<path d="M0 17.5834L4.12418 20V15.1655L0 12.75V17.5834Z" fill="url(#paint8_linear_108_834)"/>
<defs>
<linearGradient id="paint0_linear_108_834" x1="14.1504" y1="-1.36363e-07" x2="11.8718" y2="5.42467" gradientUnits="userSpaceOnUse">
<stop stop-color="#9121C2"/>
<stop offset="1" stop-color="#BB399C"/>
</linearGradient>
<linearGradient id="paint1_linear_108_834" x1="14.7367" y1="3.44678" x2="10.0744" y2="7.1457" gradientUnits="userSpaceOnUse">
<stop stop-color="#9121C2"/>
<stop offset="1" stop-color="#BB399C"/>
</linearGradient>
<linearGradient id="paint2_linear_108_834" x1="9.44022" y1="3.44678" x2="4.7779" y2="7.14587" gradientUnits="userSpaceOnUse">
<stop stop-color="#9121C2"/>
<stop offset="1" stop-color="#BB399C"/>
</linearGradient>
<linearGradient id="paint3_linear_108_834" x1="19.4273" y1="9.3031" x2="17.1488" y2="14.7278" gradientUnits="userSpaceOnUse">
<stop stop-color="#9121C2"/>
<stop offset="1" stop-color="#BB399C"/>
</linearGradient>
<linearGradient id="paint4_linear_108_834" x1="20.0138" y1="12.75" x2="15.3515" y2="16.4489" gradientUnits="userSpaceOnUse">
<stop stop-color="#9121C2"/>
<stop offset="1" stop-color="#BB399C"/>
</linearGradient>
<linearGradient id="paint5_linear_108_834" x1="14.7173" y1="12.75" x2="10.055" y2="16.4491" gradientUnits="userSpaceOnUse">
<stop stop-color="#9121C2"/>
<stop offset="1" stop-color="#BB399C"/>
</linearGradient>
<linearGradient id="paint6_linear_108_834" x1="8.8342" y1="9.3031" x2="6.55568" y2="14.7278" gradientUnits="userSpaceOnUse">
<stop stop-color="#9121C2"/>
<stop offset="1" stop-color="#BB399C"/>
</linearGradient>
<linearGradient id="paint7_linear_108_834" x1="9.42066" y1="12.75" x2="4.75839" y2="16.4489" gradientUnits="userSpaceOnUse">
<stop stop-color="#9121C2"/>
<stop offset="1" stop-color="#BB399C"/>
</linearGradient>
<linearGradient id="paint8_linear_108_834" x1="4.12418" y1="12.75" x2="-0.538141" y2="16.4491" gradientUnits="userSpaceOnUse">
<stop stop-color="#9121C2"/>
<stop offset="1" stop-color="#BB399C"/>
</linearGradient>
</defs>
</svg>
