<svg xmlns="http://www.w3.org/2000/svg" width="24" height="25" fill="none"><path fill="#92899C" d="M11.15 12.018c0 .404.32.725.724.725h4.045l-1.655 1.655a.73.73 0 0 0 0 1.024.73.73 0 0 0 1.024 0l2.897-2.897a.73.73 0 0 0 0-1.024l-2.897-2.897a.73.73 0 0 0-1.024 0 .73.73 0 0 0 0 1.024l1.655 1.656h-4.045a.72.72 0 0 0-.724.724v.01Z"/><path fill="#92899C" fill-rule="evenodd" d="M10.801 4.928a8.032 8.032 0 0 1 3.887-.99 8.147 8.147 0 0 1 8.153 8.153 8.147 8.147 0 0 1-12.035 7.165.724.724 0 1 1 .688-1.274 6.7 6.7 0 0 0 9.898-5.891 6.698 6.698 0 0 0-6.704-6.704c-1.16 0-2.24.29-3.19.81a.724.724 0 0 1-.697-1.27ZM.99 12.111c0-.4.324-.724.724-.724h4.801a.724.724 0 1 1 0 1.449h-4.8a.724.724 0 0 1-.725-.725ZM4.125 15.008c0-.4.324-.724.724-.724h4.315a.724.724 0 1 1 0 1.449H4.849a.724.724 0 0 1-.724-.725ZM2.884 9.204c0-.4.324-.724.724-.724h5.556a.724.724 0 1 1 0 1.449H3.608a.724.724 0 0 1-.724-.725Z" clip-rule="evenodd"/></svg>