<svg width="16" height="16" viewBox="0 0 16 16" fill="none" xmlns="http://www.w3.org/2000/svg">
<path d="M13.657 2.34301C10.533 -0.781003 5.46702 -0.781003 2.34301 2.34301C-0.781003 5.46702 -0.781003 10.533 2.34301 13.657C5.46702 16.781 10.533 16.781 13.657 13.657C16.781 10.533 16.781 5.46702 13.657 2.34301ZM11.4955 8.48971L8.99631 9.92507L6.54776 11.3435C6.46333 11.4111 6.34512 11.4449 6.22691 11.4449C5.90607 11.4449 5.65277 11.1916 5.65277 10.8707V8V5.1124C5.65277 5.01108 5.66966 4.92665 5.72032 4.82533C5.8723 4.55515 6.22691 4.45383 6.4971 4.62269L8.96253 6.04116C8.97942 6.04116 8.97942 6.05805 8.99631 6.05805L11.4955 7.4934C11.5799 7.54406 11.6475 7.61161 11.715 7.69604C11.867 7.98311 11.7657 8.33773 11.4955 8.48971Z" fill="url(#paint0_linear_308_1546)"/>
<defs>
<linearGradient id="paint0_linear_308_1546" x1="16" y1="-4.51544e-07" x2="5.99295" y2="13.9572" gradientUnits="userSpaceOnUse">
<stop stop-color="#9121C2"/>
<stop offset="1" stop-color="#BB399C"/>
</linearGradient>
</defs>
</svg>
