<svg width="16" height="16" viewBox="0 0 16 16" fill="none" xmlns="http://www.w3.org/2000/svg">
<path opacity="0.4" fill-rule="evenodd" clip-rule="evenodd" d="M7.64233 1.45757C7.83752 1.25438 8.16252 1.25438 8.35771 1.45757L13.8691 7.19476V14.3787C13.8691 14.7804 13.5435 15.1061 13.1417 15.1061H2.8583C2.45655 15.1061 2.13086 14.7804 2.13086 14.3787V7.19479L7.64233 1.45757ZM6.03809 12.1308V15.1061H9.96184V12.1308C9.96184 11.0473 9.08349 10.1689 7.99996 10.1689C6.91646 10.1689 6.03809 11.0473 6.03809 12.1308Z" fill="url(#paint0_linear_3_483)"/>
<path d="M7.64233 2.37005L1.22389 9.0514C1.09558 9.18496 0.882576 9.18712 0.751638 9.05615L0.0968567 8.40137C-0.0304559 8.27406 -0.0325184 8.06831 0.0922004 7.93849L7.52308 0.20318C7.78333 -0.0677266 8.21667 -0.0677266 8.47689 0.20318L15.9078 7.93849C16.0325 8.06834 16.0305 8.27406 15.9031 8.40137L15.2484 9.05615C15.1174 9.18712 14.9045 9.18496 14.7761 9.0514L8.3577 2.37005C8.16252 2.16687 7.83751 2.16687 7.64233 2.37005Z" fill="url(#paint1_linear_3_483)"/>
<defs>
<linearGradient id="paint0_linear_3_483" x1="13.8691" y1="1.30518" x2="4.8867" y2="11.9609" gradientUnits="userSpaceOnUse">
<stop stop-color="#9121C2"/>
<stop offset="1" stop-color="#BB399C"/>
</linearGradient>
<linearGradient id="paint1_linear_3_483" x1="16" y1="-2.58311e-07" x2="11.7557" y2="10.348" gradientUnits="userSpaceOnUse">
<stop stop-color="#9121C2"/>
<stop offset="1" stop-color="#BB399C"/>
</linearGradient>
</defs>
</svg>
