<svg xmlns="http://www.w3.org/2000/svg" width="24" height="25" fill="none"><path fill="#92899C" d="m22.21 20.732-.139-.139a.983.983 0 1 0-1.392 1.393l.138.138a.97.97 0 0 0 .701.286c.257 0 .504-.098.701-.286a.983.983 0 0 0 0-1.392h-.01ZM19.07 17.591a9.791 9.791 0 0 0 2.063-6.004c0-5.411-4.404-9.816-9.816-9.816-5.412 0-9.826 4.405-9.826 9.826 0 5.422 4.405 9.826 9.826 9.826a9.77 9.77 0 0 0 6.4-2.39l.997.997a.97.97 0 0 0 .7.287c.258 0 .504-.099.702-.287a.983.983 0 0 0 0-1.392l-1.047-1.047ZM3.465 11.597c0-4.325 3.516-7.85 7.851-7.85a7.852 7.852 0 1 1-7.85 7.85Z"/><path fill="#92899C" d="M7.16 9.632h3.397a.99.99 0 0 0 .987-.988.99.99 0 0 0-.987-.987H7.16a.99.99 0 0 0-.988.987.99.99 0 0 0 .988.988ZM13.42 9.632h1.502a.99.99 0 0 0 .987-.988.99.99 0 0 0-.988-.987h-1.5a.99.99 0 0 0-.988.987.99.99 0 0 0 .988.988ZM10.784 13.858H7.387a.99.99 0 0 0-.988.988.99.99 0 0 0 .988.988h3.397a.99.99 0 0 0 .987-.988.99.99 0 0 0-.987-.988ZM15.149 13.858h-1.501a.99.99 0 0 0-.988.988.99.99 0 0 0 .988.988h1.5a.99.99 0 0 0 .988-.988.99.99 0 0 0-.987-.988ZM7.387 10.758a.99.99 0 0 0-.988.987.99.99 0 0 0 .988.988h6.843a.99.99 0 0 0 .988-.988.99.99 0 0 0-.988-.987H7.387Z"/></svg>