<svg width="21" height="20" viewBox="0 0 21 20" fill="none" xmlns="http://www.w3.org/2000/svg">
<path d="M5.90173 2.41645L10.0258 4.83188L14.1496 2.41645L10.0258 0L5.90173 2.41645Z" fill="#D0C9D6"/>
<path d="M14.736 8.28018V3.44678L10.6119 5.86228V10.6967L14.736 8.28018Z" fill="#B1A9B9"/>
<path d="M5.31531 8.28022L9.43949 10.6968V5.86232L5.31531 3.44678V8.28022Z" fill="#92899C"/>
<path d="M11.1787 11.7195L15.3027 14.135L19.4266 11.7195L15.3027 9.3031L11.1787 11.7195Z" fill="#D0C9D6"/>
<path d="M20.0131 17.5834V12.75L15.889 15.1655V20L20.0131 17.5834Z" fill="#B1A9B9"/>
<path d="M10.5924 17.5834L14.7166 20V15.1655L10.5924 12.75V17.5834Z" fill="#92899C"/>
<path d="M0.585571 11.7195L4.7096 14.135L8.83347 11.7195L4.7096 9.3031L0.585571 11.7195Z" fill="#D0C9D6"/>
<path d="M9.41993 17.5834V12.75L5.2959 15.1655V20L9.41993 17.5834Z" fill="#B1A9B9"/>
<path d="M-0.000732422 17.5834L4.12345 20V15.1655L-0.000732422 12.75V17.5834Z" fill="#92899C"/>
</svg>
