<svg xmlns="http://www.w3.org/2000/svg" width="36" height="36" fill="none"><g clip-path="url(#a)"><path fill="#4A9EA1" d="M18 34.131a.011.011 0 0 0-.008-.003.974.974 0 0 1-.357-.071l-.088-.046-.113-.058-13.145-7.197a.905.905 0 0 1-.469-.785V11.376c0-.188.06-.37.181-.525.107-.13.188-.202.288-.26l.064-.037a.012.012 0 0 1 .007-.002c.002 0 .004 0 .006-.002l13.168-7.703a.972.972 0 0 1 .47-.124c.167 0 .328.04.469.124l13.221 7.57c.161.091.295.234.376.403.067.168.093.272.093.382v14.596a.905.905 0 0 1-.469.784L18.53 33.98a.818.818 0 0 1-.117.055c-.095.036-.283.099-.404.1a.01.01 0 0 1-.008-.003Zm.935-3.658c.114.042.226.091.333.148.374.195.824.26 1.193.053l7.06-3.946c.399-.223.575-.692.591-1.15a2.66 2.66 0 0 1 .536-1.498c.215-.283.48-.52.78-.7.387-.233.702-.612.702-1.064v-7.968c0-.333-.221-.62-.514-.779-.271-.147-.6-.181-.87-.031l-1.023.57a.971.971 0 0 1-.469.122.805.805 0 0 1-.382-.078.887.887 0 0 1-.43-.376.882.882 0 0 1-.093-.687.904.904 0 0 1 .436-.551l.997-.556c.273-.152.407-.462.411-.775.004-.317-.13-.636-.406-.79l-7.351-4.104c-.363-.203-.806-.144-1.18.039a2.861 2.861 0 0 1-2.523-.004c-.37-.182-.81-.24-1.171-.038l-7.568 4.223c-.248.138-.364.427-.345.711.017.254.136.499.358.622l.008.004a.882.882 0 0 1 .436.551.855.855 0 0 1-.094.688.947.947 0 0 1-.81.453.94.94 0 0 1-.47-.123.42.42 0 0 0-.461.05 2.876 2.876 0 0 1-.257.181c-.287.18-.502.473-.502.81v8.087c0 .443.303.818.68 1.052.285.177.536.405.74.675.302.396.48.856.526 1.334.04.423.22.847.592 1.055L15.58 30.7c.292.163.647.117.937-.048.298-.169.528-.463.528-.806v-4.645c0-.499.422-.907.938-.907s.939.408.939.907v5.25c0 .01.005.018.013.022Z"/><path fill="#4BC7CB" d="M8.806 22.478c-.482 0-.878-.383-.878-.85v-6.263c0-.467.396-.85.878-.85.483 0 .878.383.878.85v6.263c0 .467-.395.85-.878.85ZM11.595 22.452l-.014-.026a.855.855 0 0 1-.683-.823v-6.115c0-.467.395-.85.878-.85h2.098c.69 0 1.348.26 1.837.74.49.473.764 1.102.764 1.777a2.43 2.43 0 0 1-.764 1.776 2.7 2.7 0 0 1-1.877.778h-1.187v1.894c0 .466-.395.849-.878.849h-.174Zm2.225-4.442c.235 0 .45-.09.604-.24.368-.356.368-.881.04-1.199a.857.857 0 0 0-.597-.24h-1.226v1.673h1.18v.006ZM18.023 22.426c-.482 0-.878-.382-.878-.85v-6.088c0-.467.396-.85.878-.85h3.573c.483 0 .878.383.878.85 0 .467-.395.85-.878.85h-2.694v1.056h2.118c.483 0 .878.383.878.85 0 .467-.395.85-.878.85h-2.118v2.49c0 .466-.396.849-.879.849v-.007ZM25.263 22.115c-.778 0-1.71-.201-2.768-.597a.847.847 0 0 1-.503-1.096.88.88 0 0 1 1.133-.486c.858.324 1.575.486 2.131.486.396 0 .604-.084.69-.142.202-.117.269-.324.29-.467-.028-.266-.343-.61-1.409-.83-1.106-.233-1.863-.797-2.138-1.576-.235-.687-.054-1.42.51-2.055.415-.467 1.119-.7 2.09-.7.973 0 1.864.22 2.126.292.47.123.744.59.623 1.037a.87.87 0 0 1-1.072.597 7.045 7.045 0 0 0-1.676-.234c-.496 0-.724.084-.764.117-.516.46.16.758.677.869 1.454.31 2.922 1.355 2.768 2.678-.04.343-.228 1.206-1.12 1.73-.435.254-.971.383-1.595.383l.007-.006Z"/></g><defs><clipPath id="a"><path fill="#fff" d="M0 0h36v36H0z"/></clipPath></defs></svg>