<svg xmlns="http://www.w3.org/2000/svg" width="36" height="36" fill="none"><g clip-path="url(#a)"><path stroke="#92899C" stroke-linecap="round" stroke-linejoin="round" stroke-width="2.6" d="m23.258 6.528 6.312-3.876c1.612-.995 3.687.171 3.687 2.058v18.129M12.899 6.528 6.57 2.652c-1.612-.995-3.687.171-3.687 2.058v18.129"></path><path stroke="#92899C" stroke-linecap="round" stroke-linejoin="round" stroke-width="2.8" d="M21.543 33.608h-6.929c-6.483 0-11.731-5.248-11.731-11.73v-1.081c0-8.353 8.13-15.18 15.178-15.18 7.05 0 15.18 6.827 15.18 15.18v1.08c0 6.483-5.25 11.732-11.732 11.732h.034Z"></path><path fill="#92899C" d="m16.518 23.37 1.56.789 1.544-.79"></path><path stroke="#92899C" stroke-linecap="round" stroke-linejoin="round" stroke-width="2.6" d="m16.518 23.37 1.56.789 1.544-.79M18.079 24.468v2.109"></path><circle cx="12.105" cy="17.95" r="2.084" fill="#92899C"></circle><circle cx="24.035" cy="17.95" r="2.084" fill="#92899C"></circle></g><defs><clipPath id="a"><path fill="#92899C" d="M1.476.885h33.187v34.13H1.476z"></path></clipPath></defs></svg>