<svg width="16" height="13" viewBox="0 0 16 13" fill="none" xmlns="http://www.w3.org/2000/svg">
<path d="M12.8 2.1333H6.6499L5.59482 0.270289C5.54829 0.188226 5.48083 0.119972 5.39932 0.0724887C5.31781 0.0250054 5.22516 -7.92672e-06 5.13083 1.88429e-09H0.533569C0.392122 1.88429e-09 0.256469 0.0561895 0.156451 0.156207C0.0564335 0.256225 0.000244141 0.391878 0.000244141 0.533325V12.2665C0.00029008 12.391 0.0438975 12.5116 0.123513 12.6074C0.203129 12.7032 0.313738 12.7681 0.436184 12.7909C0.468419 12.7967 0.501091 12.7997 0.533835 12.7998C0.641588 12.7998 0.746811 12.7671 0.835645 12.7061C0.924478 12.6452 0.992754 12.5587 1.03148 12.4581L3.56659 5.86657H12.8C12.9415 5.86657 13.0771 5.81038 13.1772 5.71036C13.2772 5.61034 13.3334 5.47469 13.3334 5.33325V2.66662C13.3334 2.52518 13.2772 2.38952 13.1772 2.28951C13.0771 2.18949 12.9415 2.1333 12.8 2.1333Z" fill="url(#paint0_linear_3_495)"/>
<path opacity="0.4" d="M15.9062 5.03118C15.8572 4.95986 15.7916 4.90155 15.715 4.86126C15.6384 4.82097 15.5532 4.79992 15.4666 4.79993H3.20017C3.09239 4.79997 2.98715 4.83263 2.89828 4.89361C2.80941 4.95459 2.74108 5.04103 2.70226 5.14157L0.035635 12.0748C0.0045133 12.1556 -0.00646404 12.2428 0.00365156 12.3288C0.0137671 12.4148 0.0446714 12.497 0.0936938 12.5684C0.142716 12.6398 0.208382 12.6981 0.285018 12.7385C0.361653 12.7788 0.446953 12.7998 0.533547 12.7998H12.8C12.9078 12.7998 13.013 12.7671 13.1019 12.7061C13.1908 12.6451 13.2591 12.5587 13.2979 12.4581L15.9645 5.52493C15.9956 5.44406 16.0065 5.35687 15.9963 5.27085C15.9861 5.18484 15.9552 5.10258 15.9062 5.03118Z" fill="url(#paint1_linear_3_495)"/>
<defs>
<linearGradient id="paint0_linear_3_495" x1="13.3334" y1="-3.61229e-07" x2="5.4379" y2="11.4709" gradientUnits="userSpaceOnUse">
<stop stop-color="#9121C2"/>
<stop offset="1" stop-color="#BB399C"/>
</linearGradient>
<linearGradient id="paint1_linear_3_495" x1="16" y1="4.79993" x2="12.6436" y2="14.1626" gradientUnits="userSpaceOnUse">
<stop stop-color="#9121C2"/>
<stop offset="1" stop-color="#BB399C"/>
</linearGradient>
</defs>
</svg>
