<svg width="16" height="14" viewBox="0 0 16 14" fill="none" xmlns="http://www.w3.org/2000/svg">
<path d="M11.4101 5.98548C11.3267 5.83923 11.1712 5.74892 11.0029 5.74892H8.7812V2.18092C8.7812 1.96971 8.63992 1.78458 8.43623 1.7288C8.23252 1.67311 8.01667 1.76043 7.90908 1.94217L4.59368 7.54354C4.50793 7.68844 4.50646 7.86819 4.58984 8.01447C4.67324 8.16072 4.82868 8.25104 4.99705 8.25104H7.21871V11.819C7.21871 12.0302 7.35996 12.2154 7.56367 12.2712C7.76786 12.327 7.98345 12.2392 8.09083 12.0578L11.4062 6.45642C11.492 6.31151 11.4934 6.13176 11.4101 5.98548Z" fill="url(#paint0_linear_3_558)"/>
<g opacity="0.4">
<path d="M2.15543 6.53125H0.468749C0.209875 6.53125 0 6.74112 0 7C0 7.25887 0.209875 7.46875 0.468749 7.46875H2.15543C2.41431 7.46875 2.62418 7.25887 2.62418 7C2.62418 6.74112 2.41431 6.53125 2.15543 6.53125Z" fill="url(#paint1_linear_3_558)"/>
</g>
<g opacity="0.4">
<path d="M15.5313 6.53125H13.8446C13.5857 6.53125 13.3759 6.74112 13.3759 7C13.3759 7.25887 13.5857 7.46875 13.8446 7.46875H15.5313C15.7902 7.46875 16 7.25887 16 7C16 6.74112 15.7902 6.53125 15.5313 6.53125Z" fill="url(#paint2_linear_3_558)"/>
</g>
<g opacity="0.4">
<path d="M5.3118 11.6624C5.08762 11.533 4.80096 11.61 4.67158 11.8343L3.82824 13.297C3.69893 13.5213 3.77593 13.8079 4.00021 13.9372C4.22443 14.0666 4.51108 13.9896 4.64043 13.7653L5.48377 12.3026C5.61308 12.0783 5.53608 11.7917 5.3118 11.6624Z" fill="url(#paint3_linear_3_558)"/>
</g>
<g opacity="0.4">
<path d="M11.9997 0.0627677C11.7755 -0.0665758 11.4888 0.0103928 11.3595 0.234705L10.5161 1.69742C10.3868 1.9217 10.4638 2.20833 10.6881 2.33764C10.9123 2.46695 11.199 2.38998 11.3283 2.1657L12.1716 0.702985C12.3009 0.478704 12.2239 0.19208 11.9997 0.0627677Z" fill="url(#paint4_linear_3_558)"/>
</g>
<g opacity="0.4">
<path d="M12.1716 13.297L11.3283 11.8343C11.199 11.61 10.9123 11.5331 10.6881 11.6624C10.4638 11.7917 10.3868 12.0783 10.5161 12.3026L11.3595 13.7653C11.4887 13.9895 11.7753 14.0666 11.9997 13.9372C12.2239 13.8079 12.3009 13.5213 12.1716 13.297Z" fill="url(#paint5_linear_3_558)"/>
</g>
<g opacity="0.4">
<path d="M5.48377 1.69741L4.64043 0.234698C4.51112 0.0104172 4.22446 -0.0665826 4.00021 0.0627609C3.77593 0.192073 3.69893 0.478697 3.82824 0.702978L4.67158 2.16569C4.80087 2.38991 5.08746 2.46697 5.3118 2.33763C5.53608 2.20832 5.61308 1.92169 5.48377 1.69741Z" fill="url(#paint6_linear_3_558)"/>
</g>
<defs>
<linearGradient id="paint0_linear_3_558" x1="11.4716" y1="1.71216" x2="4.51465" y2="8.08255" gradientUnits="userSpaceOnUse">
<stop stop-color="#9121C2"/>
<stop offset="1" stop-color="#BB399C"/>
</linearGradient>
<linearGradient id="paint1_linear_3_558" x1="2.62418" y1="6.53125" x2="2.32655" y2="7.69322" gradientUnits="userSpaceOnUse">
<stop stop-color="#9121C2"/>
<stop offset="1" stop-color="#BB399C"/>
</linearGradient>
<linearGradient id="paint2_linear_3_558" x1="16" y1="6.53125" x2="15.7024" y2="7.69322" gradientUnits="userSpaceOnUse">
<stop stop-color="#9121C2"/>
<stop offset="1" stop-color="#BB399C"/>
</linearGradient>
<linearGradient id="paint3_linear_3_558" x1="5.54651" y1="11.5996" x2="3.96228" y2="13.239" gradientUnits="userSpaceOnUse">
<stop stop-color="#9121C2"/>
<stop offset="1" stop-color="#BB399C"/>
</linearGradient>
<linearGradient id="paint4_linear_3_558" x1="12.2344" y1="-6.77424e-08" x2="10.6501" y2="1.63944" gradientUnits="userSpaceOnUse">
<stop stop-color="#9121C2"/>
<stop offset="1" stop-color="#BB399C"/>
</linearGradient>
<linearGradient id="paint5_linear_3_558" x1="12.2344" y1="11.5996" x2="10.6502" y2="13.239" gradientUnits="userSpaceOnUse">
<stop stop-color="#9121C2"/>
<stop offset="1" stop-color="#BB399C"/>
</linearGradient>
<linearGradient id="paint6_linear_3_558" x1="5.54651" y1="-6.77423e-08" x2="3.96228" y2="1.63944" gradientUnits="userSpaceOnUse">
<stop stop-color="#9121C2"/>
<stop offset="1" stop-color="#BB399C"/>
</linearGradient>
</defs>
</svg>
