<svg xmlns="http://www.w3.org/2000/svg" width="36" height="36" fill="none"><g clip-path="url(#a)"><path fill="#8F7DFF" d="M29.484 6H6.516C4.576 6 3 7.54 3 9.432v18.992C3 30.947 5.103 33 7.688 33h20.625C30.896 33 33 30.947 33 28.424c0-.632-.524-1.144-1.172-1.144-.647 0-1.172.512-1.172 1.144 0 1.261-1.051 2.288-2.343 2.288H7.688c-1.292 0-2.344-1.027-2.344-2.288V12.922h25.312v9.781c0 .633.525 1.145 1.172 1.145.648 0 1.172-.512 1.172-1.145V9.433C33 7.538 31.423 6 29.484 6Zm-4.746 2.288c.647 0 1.172.513 1.172 1.144 0 .631-.525 1.144-1.172 1.144-.646 0-1.172-.513-1.172-1.144 0-.63.526-1.144 1.172-1.144Zm5.86 1.144c0 .631-.526 1.144-1.172 1.144-.646 0-1.172-.513-1.172-1.144 0-.63.525-1.144 1.172-1.144.646 0 1.172.513 1.172 1.144Zm-25.254 0c0-.63.525-1.144 1.172-1.144h14.908a3.343 3.343 0 0 0 .021 2.345H5.344v-1.2Z"/><path fill="#5555FA" d="M8.705 24.963c-.63 0-1.142-.499-1.142-1.114 0-.616.511-1.115 1.142-1.115.63 0 1.142.488 1.142 1.115s-.512 1.114-1.142 1.114ZM16.127 23.93c0 .383-.262.639-.785.824-.523.186-1.023.209-1.475.209-.928 0-1.665-.267-2.176-.743-.548-.5-.845-1.243-.845-2.114 0-.824.333-1.51.833-1.997.476-.453 1.154-.72 2.01-.72.904 0 1.546.278 1.975.696.547.534.69 1.15.69 1.638 0 .58-.346.94-.928.94h-2.558c.06.256.167.441.322.58.19.175.463.268.809.268.309 0 .523-.046.702-.105.285-.092.464-.22.713-.22.417 0 .714.337.714.743Zm-1.641-2.392c-.025-.186-.06-.325-.19-.476-.131-.151-.334-.233-.596-.233-.237 0-.475.07-.606.21a.934.934 0 0 0-.226.499h1.617ZM17.71 19.494v-.743c0-.511.428-.918.963-.918.535 0 .964.407.964.918v.743h.773c.404 0 .738.325.738.731a.745.745 0 0 1-.738.743h-.773v1.928c0 .383.142.5.332.5.178 0 .321-.105.488-.21a.811.811 0 0 1 .464-.139c.428 0 .725.337.725.743 0 .406-.357.743-.832.94a3.324 3.324 0 0 1-1.226.233c-1.32 0-1.88-.883-1.88-1.904v-2.09H17.4a.745.745 0 0 1-.737-.744c0-.394.32-.731.737-.731h.31ZM22.337 17.763c0-.51.44-.917.963-.917.524 0 .964.407.964.917v2.125a2.367 2.367 0 0 1 1.475-.5c.594.001 1.189.152 1.617.535.369.337.619.86.619 1.638v2.497c0 .5-.452.906-.963.906-.512 0-.964-.407-.964-.906v-2.09c0-.267-.012-.604-.19-.825-.108-.127-.286-.22-.548-.22-.404 0-.666.174-.82.43-.167.266-.227.615-.227.94v1.765c0 .5-.452.906-.963.906-.512 0-.964-.407-.964-.906v-6.295Z"/></g><defs><clipPath id="a"><path fill="#fff" d="M3 6h30v27H3z"/></clipPath></defs></svg>