<svg width="16" height="16" viewBox="0 0 16 16" fill="none" xmlns="http://www.w3.org/2000/svg">
<path d="M5.64709 12V15.4432C5.64709 15.6837 5.7915 15.8968 6.00533 15.9725C6.05879 15.9911 6.11363 16 6.16778 16C6.33024 16 6.48714 15.9183 6.58711 15.7728L8.47062 13.0319L5.64709 12Z" fill="#92899C"/>
<path d="M15.79 0.0973616C15.6366 -0.0167379 15.4353 -0.0321378 15.2686 0.0595618L0.268695 8.28453C0.0913627 8.38182 -0.0133036 8.58062 0.00136298 8.78992C0.0166963 8.99992 0.149363 9.17912 0.338029 9.24702L4.50801 10.7436L13.3887 2.77065L6.51667 11.4639L13.5053 13.972C13.5573 13.9902 13.612 14 13.6667 14C13.7573 14 13.8473 13.9741 13.9266 13.9237C14.0533 13.8425 14.1393 13.706 14.1613 13.5527L15.9946 0.602759C16.022 0.40676 15.9433 0.212161 15.79 0.0973616V0.0973616Z" fill="#B1A9B9"/>
</svg>
