<svg width="22" height="20" viewBox="0 0 22 20" fill="none" xmlns="http://www.w3.org/2000/svg">
<path fill-rule="evenodd" clip-rule="evenodd" d="M3.25727 5.51454C4.50402 5.51454 5.51454 4.50402 5.51454 3.25727C5.51454 2.01053 4.50402 1 3.25727 1C2.01068 1 1 2.01053 1 3.25727C1 4.50402 2.01068 5.51454 3.25727 5.51454ZM3.25727 12.0687C4.50402 12.0687 5.51454 11.0582 5.51454 9.81142C5.51454 8.56467 4.50402 7.55414 3.25727 7.55414C2.01068 7.55414 1 8.56467 1 9.81142C1 11.0582 2.01068 12.0687 3.25727 12.0687ZM5.51454 16.3656C5.51454 17.6123 4.50402 18.6228 3.25727 18.6228C2.01068 18.6228 1 17.6123 1 16.3656C1 15.1188 2.01068 14.1083 3.25727 14.1083C4.50402 14.1083 5.51454 15.1188 5.51454 16.3656ZM7.71892 2.57903C7.70645 2.62797 7.69992 2.67905 7.69992 2.73194L7.69992 3.7829C7.69992 4.12674 7.97869 4.40552 8.32253 4.40552L20.3191 4.40552C20.6629 4.40552 20.9417 4.12674 20.9417 3.7829V2.73194C20.9417 2.38811 20.6629 2.10933 20.3191 2.10933L8.32253 2.10933C8.18694 2.10933 8.06154 2.1528 7.95939 2.22638C7.89965 2.26924 7.84782 2.32244 7.80662 2.38355C7.7668 2.44222 7.73685 2.50819 7.71892 2.57903ZM7.69992 9.28609C7.69992 8.94225 7.97869 8.66348 8.32253 8.66348L20.3191 8.66348C20.6629 8.66348 20.9417 8.94225 20.9417 9.28609V10.337C20.9417 10.6809 20.6629 10.9597 20.3191 10.9597L8.32253 10.9597C7.97869 10.9597 7.69992 10.6809 7.69992 10.337V9.28609ZM8.32253 15.2176C7.97869 15.2176 7.69992 15.4964 7.69992 15.8402V16.8912C7.69992 17.235 7.97869 17.5138 8.32253 17.5138L20.3191 17.5138C20.6629 17.5138 20.9417 17.235 20.9417 16.8912V15.8402C20.9417 15.4964 20.6629 15.2176 20.3191 15.2176L8.32253 15.2176Z" fill="#877D91"/>
<path fill-rule="evenodd" clip-rule="evenodd" d="M7.71889 2.57901C7.70643 2.62795 7.69989 2.67903 7.69989 2.73193V3.78289C7.69989 4.12672 7.97867 4.4055 8.3225 4.4055L20.319 4.4055C20.6629 4.4055 20.9416 4.12672 20.9416 3.78289V2.73193C20.9416 2.38809 20.6629 2.10931 20.319 2.10931L8.3225 2.10931C8.18691 2.10931 8.06151 2.15279 7.95936 2.22636C7.89962 2.26922 7.84779 2.32242 7.8066 2.38353C7.76677 2.4422 7.73683 2.50817 7.71889 2.57901ZM7.69989 9.28607C7.69989 8.94224 7.97867 8.66346 8.3225 8.66346L20.319 8.66346C20.6629 8.66346 20.9416 8.94224 20.9416 9.28607V10.337C20.9416 10.6809 20.6629 10.9596 20.319 10.9596L8.3225 10.9596C7.97867 10.9596 7.69989 10.6809 7.69989 10.337V9.28607ZM8.3225 15.2176C7.97867 15.2176 7.69989 15.4964 7.69989 15.8402L7.69989 16.8912C7.69989 17.235 7.97867 17.5138 8.3225 17.5138H20.319C20.6629 17.5138 20.9416 17.235 20.9416 16.8912V15.8402C20.9416 15.4964 20.6629 15.2176 20.319 15.2176L8.3225 15.2176Z" fill="#C9C1D0"/>
</svg>
