<svg width="16" height="15" viewBox="0 0 16 15" fill="none" xmlns="http://www.w3.org/2000/svg">
<path d="M2 0C0.895431 0 0 0.895431 0 2V8.41992C0 9.52449 0.895431 10.4199 2 10.4199H14C15.1046 10.4199 16 9.52449 16 8.41992V2C16 0.89543 15.1046 0 14 0H2ZM6.51794 7.72429V2.69567L11.2746 5.20996L6.51794 7.72429Z" fill="#92899C"/>
<path opacity="0.4" d="M10.5 11.3707C9.88891 11.3707 9.36787 11.7667 9.17437 12.318H0V13.2653H9.17437C9.36787 13.8165 9.88891 14.2125 10.5 14.2125C11.1111 14.2125 11.6321 13.8165 11.8256 13.2653H16V12.318H11.8256C11.6321 11.7667 11.1111 11.3707 10.5 11.3707Z" fill="#92899C"/>
</svg>
