<svg xmlns="http://www.w3.org/2000/svg" width="33" height="32" viewBox="0 0 33 32" fill="none"><g clip-path="url(#clip0_9467_365051)"><path fill-rule="evenodd" clip-rule="evenodd" d="M6.86492 7.21751C5.96092 7.21751 5.22808 7.94751 5.22808 8.84801V23.152C5.22808 24.0525 5.96092 24.7825 6.86492 24.7825H24.1882C25.0922 24.7825 25.8251 24.0525 25.8251 23.152V20.8112C25.8251 20.0608 26.4358 19.4525 27.1891 19.4525C27.9424 19.4525 28.5531 20.0608 28.5531 20.8112V23.152C28.5531 25.5533 26.5989 27.5 24.1882 27.5H6.86492C4.45424 27.5 2.5 25.5533 2.5 23.152V8.84801C2.5 6.44667 4.45424 4.5 6.86492 4.5H24.1882C26.5989 4.5 28.5531 6.44667 28.5531 8.84801V11.1888C28.5531 11.9392 27.9424 12.5475 27.1891 12.5475C26.4358 12.5475 25.8251 11.9392 25.8251 11.1888V8.84801C25.8251 7.94751 25.0922 7.21751 24.1882 7.21751H6.86492Z" fill="#57A5FF"></path><path fill-rule="evenodd" clip-rule="evenodd" d="M19.724 13.7146C19.6076 13.7146 19.5132 13.8086 19.5132 13.9246V18.0626C19.5132 18.1786 19.6076 18.2726 19.724 18.2726H27.5735C27.6899 18.2726 27.7843 18.1786 27.7843 18.0626V13.9246C27.7843 13.8086 27.6899 13.7146 27.5735 13.7146H19.724ZM16.7852 13.9246C16.7852 12.3078 18.1009 10.9971 19.724 10.9971H27.5735C29.1966 10.9971 30.5123 12.3078 30.5123 13.9246V18.0626C30.5123 19.6794 29.1966 20.9901 27.5735 20.9901H19.724C18.1009 20.9901 16.7852 19.6794 16.7852 18.0626V13.9246Z" fill="#57A5FF"></path><path d="M22.6874 15.9999C22.6874 15.4336 22.2266 14.9746 21.6581 14.9746C21.0897 14.9746 20.6289 15.4336 20.6289 15.9999C20.6289 16.5661 21.0897 17.0251 21.6581 17.0251C22.2266 17.0251 22.6874 16.5661 22.6874 15.9999Z" fill="#57A5FF"></path></g><defs><clipPath id="clip0_9467_365051"><rect width="28" height="23" fill="white" transform="translate(2.5 4.5)"></rect></clipPath></defs></svg>