<svg xmlns="http://www.w3.org/2000/svg" fill="none" viewBox="0 0 36 36">
  <g stroke-linecap="round" stroke-linejoin="round" stroke-width="2.6" clipPath="url(#a)">
    <path stroke="#279B4F"
      d="M30.6 23.584v-11.2c0-.994-.532-1.918-1.4-2.422l-9.8-5.6a2.782 2.782 0 0 0-2.8 0l-9.8 5.6a2.804 2.804 0 0 0-1.4 2.422v11.2c0 .994.532 1.918 1.4 2.422l9.8 5.6a2.782 2.782 0 0 0 2.8 0l9.8-5.6a2.804 2.804 0 0 0 1.4-2.422Z" />
    <path stroke="#279B4F" d="M5.777 10.928 18 17.998l12.222-7.07M18 32.096V17.984" />
    <path stroke="#6DE983" d="m9.026 23.332 5.32-3.08M21.445 20.252l5.32 3.08" />
  </g>
  <defs>
    <clipPath id="a">
      <path fill="#fff" d="M4 2.584h28v30.912H4z" />
    </clipPath>
  </defs>
</svg>