<svg xmlns="http://www.w3.org/2000/svg" fill="none" viewBox="0 0 36 36">
  <g clipPath="url(#a)">
    <path stroke="#019EC9" stroke-linecap="round" stroke-linejoin="round" stroke-width="2.951"
      d="m11.52 32.294 10.016-3-3.098-12.852-12.394-6 7.017-5.508M30.373 17.426l.491-9.984-12.425 9 3.098 12.853" />
    <path stroke="#019EC9" stroke-linecap="round" stroke-linejoin="round" stroke-width="2.951"
      d="m6.044 10.442 12.394 6 12.426-9-7.328-2.967" />
    <path fill="#fff" stroke="#01CBD2" stroke-linecap="round" stroke-linejoin="round" stroke-width="2.787"
      d="M19.094 20.328a3.934 3.934 0 1 0 0-7.87 3.934 3.934 0 0 0 0 7.87Z" />
    <path fill="#fff" stroke="#01CBD2" stroke-linecap="round" stroke-linejoin="round" stroke-width="2.803"
      d="M6.06 13.442a2.984 2.984 0 1 0 0-5.967 2.984 2.984 0 0 0 0 5.967Z" />
    <path fill="#fff"
      d="M30.93 8.426a.959.959 0 0 1-.95-.983c0-.525.442-.951.966-.951.558 0 .984.459.967.984 0 .524-.442.95-.967.95h-.016Z" />
    <path fill="#01CBD2"
      d="M30.946 4.328a3.131 3.131 0 0 0-3.131 3.082 3.135 3.135 0 0 0 3.082 3.197h.065a3.131 3.131 0 0 0 3.131-3.082 3.135 3.135 0 0 0-3.082-3.197h-.065Z" />
    <path fill="#fff" stroke="#01CBD2" stroke-linecap="round" stroke-linejoin="round" stroke-width="2.803"
      d="M21.618 31.459a2.066 2.066 0 1 0 0-4.131 2.066 2.066 0 0 0 0 4.13Z" />
  </g>
  <defs>
    <clipPath id="a">
      <path fill="#fff" d="M1.684 3h32.393v30.77H1.684z" />
    </clipPath>
  </defs>
</svg>