<svg xmlns="http://www.w3.org/2000/svg" fill="none" viewBox="0 0 36 36">
  <path stroke="#B5A3FF" stroke-width="2"
    d="M7.402 25.305c.19-.189.45-.3.727-.3h25.055c.458 0 .687.553.363.876l-4.95 4.947c-.189.19-.45.3-.726.3H2.816a.513.513 0 0 1-.363-.876l4.95-4.947Z" />
  <path stroke="#00E9F1" stroke-width="2"
    d="M7.402 6.836c.198-.189.458-.3.727-.3h25.055c.458 0 .687.553.363.876l-4.95 4.947c-.189.19-.45.3-.726.3H2.816a.513.513 0 0 1-.363-.876l4.95-4.947ZM28.598 16.248a1.042 1.042 0 0 0-.727-.292H2.816c-.458 0-.687.538-.363.853l4.95 4.82c.189.185.45.292.726.292h25.055c.458 0 .687-.538.363-.853l-4.95-4.82Z" />
</svg>