<svg xmlns="http://www.w3.org/2000/svg" fill="none" viewBox="0 0 36 36">
  <g clipPath="url(#a)">
    <path stroke="#99D3FF" stroke-linecap="round" stroke-linejoin="round" stroke-width="2.569"
      d="M31.466 24.814v-6.148a6 6 0 0 0-4.093-5.688l-2.565-.86V6.885" />
    <path stroke="#0F7FFF" stroke-linecap="round" stroke-linejoin="round" stroke-width="2.569"
      d="M6.605 26.83v-6.355a8 8 0 0 1 5.65-7.647l4.642-1.426V6.885M21.033 3.885V22.5" />
    <path stroke="#99D3FF" stroke-linecap="round" stroke-linejoin="round" stroke-width="2.569" d="M12.744 3.885v17.49" />
    <path stroke="#0F7FFF" stroke-linecap="round" stroke-linejoin="round" stroke-width="2.569"
      d="M21.033 29.586a3.337 3.337 0 1 0 0-6.673 3.337 3.337 0 0 0 0 6.673ZM6.809 34.349a3.337 3.337 0 1 0 0-6.674 3.337 3.337 0 0 0 0 6.674Z" />
    <path fill="#99D3FF" d="M12.743 25.182a3.086 3.086 0 1 0 0-6.172 3.086 3.086 0 0 0 0 6.172Z" />
    <path fill="#99D3FF" stroke="#99D3FF" stroke-width="1.567"
      d="M33.753 26.976a2.303 2.303 0 1 1-4.605 0 2.303 2.303 0 0 1 4.605 0Z" />
  </g>
  <defs>
    <clipPath id="a">
      <path fill="#fff" d="M0 0h36v36H0z" />
    </clipPath>
  </defs>
</svg>