<svg xmlns="http://www.w3.org/2000/svg" fill="none" viewBox="0 0 36 36">
  <path fill="#8227B7"
    d="M34.552 31H23.517a1.53 1.53 0 0 1-1.024-.384 1.25 1.25 0 0 1-.424-.926c0-.348.153-.681.424-.927a1.53 1.53 0 0 1 1.024-.384h8.784l-1.194-2.372a1.196 1.196 0 0 1-.029-.996c.136-.322.407-.584.754-.726a1.589 1.589 0 0 1 1.1-.037c.358.12.65.362.811.674l2.127 4.225a1.202 1.202 0 0 1-.1 1.252 1.402 1.402 0 0 1-.525.441 1.57 1.57 0 0 1-.693.16Z" />
  <path fill="#8227B7"
    d="M23.517 31H12.483a1.53 1.53 0 0 1-1.024-.384 1.25 1.25 0 0 1-.425-.926c0-.348.153-.681.425-.927a1.53 1.53 0 0 1 1.024-.384h11.034c.384 0 .753.138 1.024.384.272.246.425.58.425.927 0 .347-.153.68-.425.926a1.53 1.53 0 0 1-1.024.384Z" />
  <path fill="#8227B7"
    d="M23.517 31c-.344 0-.678-.112-.94-.314a1.284 1.284 0 0 1-.489-.79l-.746-4.225a1.19 1.19 0 0 1 .02-.51c.045-.168.125-.326.237-.465.111-.14.252-.257.414-.348a1.598 1.598 0 0 1 1.094-.159c.185.04.36.113.513.214.154.101.285.228.384.375.1.146.167.31.197.48l.747 4.224c.03.17.023.343-.022.51a1.255 1.255 0 0 1-.235.465c-.112.14-.252.258-.414.348a1.546 1.546 0 0 1-.76.195ZM12.482 31H1.448a1.57 1.57 0 0 1-.687-.157 1.406 1.406 0 0 1-.523-.433 1.199 1.199 0 0 1-.12-1.239l2.013-4.225c.152-.319.437-.57.794-.698a1.589 1.589 0 0 1 1.108.014c.352.137.63.396.772.718.142.323.136.684-.016 1.003L3.65 28.38l8.834-.002c.384 0 .752.14 1.024.386.271.245.424.579.424.926 0 .348-.153.681-.424.927-.272.245-.64.382-1.024.382Z" />
  <path fill="#8227B7"
    d="M12.482 31a1.553 1.553 0 0 1-.73-.178 1.414 1.414 0 0 1-.423-.339 1.263 1.263 0 0 1-.248-.46 1.189 1.189 0 0 1-.034-.51l.633-4.225c.052-.344.253-.656.559-.866.306-.211.692-.303 1.072-.256.381.047.726.229.959.506.232.277.334.626.282.97l-.634 4.225a1.28 1.28 0 0 1-.483.81 1.545 1.545 0 0 1-.953.323ZM32.427 26.775c-.278 0-.55-.072-.784-.208a1.36 1.36 0 0 1-.536-.558l-2.128-4.226a1.209 1.209 0 0 1 .257-1.438 1.45 1.45 0 0 1 .459-.3 1.59 1.59 0 0 1 1.108-.036c.179.06.342.152.481.269.14.117.252.258.331.415l2.128 4.226a1.202 1.202 0 0 1-.099 1.253 1.402 1.402 0 0 1-.524.441 1.57 1.57 0 0 1-.693.162Z" />
  <path fill="#8227B7"
    d="M32.427 26.775H22.77a1.53 1.53 0 0 1-1.024-.384 1.25 1.25 0 0 1-.424-.927c0-.347.152-.68.424-.926a1.53 1.53 0 0 1 1.024-.384h9.654c.385 0 .753.138 1.025.384.271.245.424.579.424.926 0 .348-.153.681-.425.927a1.526 1.526 0 0 1-1.022.384Z" />
  <path fill="#8227B7"
    d="M22.77 26.775h-9.654a1.53 1.53 0 0 1-1.024-.384 1.25 1.25 0 0 1-.424-.927c0-.347.153-.68.424-.926a1.53 1.53 0 0 1 1.024-.384h9.655c.384 0 .752.138 1.024.384.271.245.424.579.424.926 0 .348-.153.681-.424.927a1.53 1.53 0 0 1-1.024.384Z" />
  <path fill="#8227B7"
    d="M22.77 26.775c-.343 0-.677-.112-.94-.314a1.284 1.284 0 0 1-.488-.79L20.96 23.5c-.056-.34.04-.688.265-.966s.562-.464.938-.519c.376-.054.761.028 1.071.228.31.2.52.503.585.843l.383 2.17c.03.17.023.344-.021.51a1.256 1.256 0 0 1-.236.465c-.111.14-.252.258-.414.348-.162.09-.342.15-.53.178a1.523 1.523 0 0 1-.231.019ZM3.46 26.775c-.24-.001-.475-.055-.686-.158a1.407 1.407 0 0 1-.521-.434 1.232 1.232 0 0 1-.233-.605 1.197 1.197 0 0 1 .11-.632l2.016-4.226c.075-.158.184-.301.32-.421.137-.12.298-.214.475-.278a1.583 1.583 0 0 1 1.107.014c.175.068.333.167.466.29.132.123.236.27.307.429a1.2 1.2 0 0 1-.016 1.002l-2.014 4.226a1.351 1.351 0 0 1-.534.577c-.236.141-.513.216-.797.216Z" />
  <path fill="#8227B7"
    d="M13.116 26.775H3.46c-.384 0-.75-.138-1.022-.384a1.25 1.25 0 0 1-.425-.927c0-.347.153-.68.425-.926a1.53 1.53 0 0 1 1.024-.384h9.654c.385 0 .753.138 1.024.384.272.245.425.579.425.926 0 .348-.153.681-.425.927a1.53 1.53 0 0 1-1.024.384Z" />
  <path fill="#8227B7"
    d="M13.116 26.775c-.065 0-.13-.005-.195-.012a1.486 1.486 0 0 1-.958-.505 1.22 1.22 0 0 1-.283-.97l.326-2.17c.055-.343.256-.651.562-.86a1.564 1.564 0 0 1 1.067-.252c.379.047.722.227.954.501.233.274.336.62.288.964l-.325 2.171c-.048.314-.22.601-.483.81a1.546 1.546 0 0 1-.953.323ZM30.298 22.548c-.278 0-.55-.072-.784-.208a1.36 1.36 0 0 1-.535-.56l-1.74-3.457h-1.01a1.53 1.53 0 0 1-1.025-.384 1.25 1.25 0 0 1-.424-.926c0-.348.153-.68.424-.927.272-.245.64-.383 1.024-.383h1.942c.278 0 .55.072.783.207.234.136.42.33.535.558l2.127 4.225a1.2 1.2 0 0 1 .038 1.003 1.374 1.374 0 0 1-.756.733 1.554 1.554 0 0 1-.599.12Z" />
  <path fill="#8227B7"
    d="M30.298 22.548h-4.846a1.53 1.53 0 0 1-1.024-.384 1.25 1.25 0 0 1-.424-.926c0-.348.153-.681.424-.927.272-.245.64-.384 1.024-.384h4.845c.384 0 .753.139 1.024.384.272.246.424.58.424.927 0 .347-.152.68-.424.926a1.526 1.526 0 0 1-1.023.384ZM5.474 22.548c-.24 0-.475-.055-.686-.158a1.406 1.406 0 0 1-.521-.433 1.2 1.2 0 0 1-.12-1.237l2.011-4.226a1.35 1.35 0 0 1 .534-.576c.236-.14.513-.215.796-.215h2.199c.384 0 .753.138 1.024.383.272.246.424.58.424.927 0 .347-.152.68-.424.926a1.53 1.53 0 0 1-1.024.384H8.441l-1.636 3.433a1.35 1.35 0 0 1-.534.577c-.237.141-.514.216-.797.215Z" />
  <path fill="#8227B7"
    d="M10.32 22.548H5.474c-.384 0-.751-.138-1.023-.384a1.25 1.25 0 0 1-.424-.926c0-.348.153-.681.424-.927.272-.245.64-.384 1.024-.384h4.845c.384 0 .753.139 1.024.384.272.246.425.58.425.927 0 .347-.153.68-.425.926a1.53 1.53 0 0 1-1.024.384ZM14.969 13.153c-.298 0-.588-.083-.832-.237a1.335 1.335 0 0 1-.531-.627 1.192 1.192 0 0 1-.037-.789c.077-.26.242-.492.47-.665l4.263-3.214h-4.55c-.19 0-.378-.034-.554-.1a1.467 1.467 0 0 1-.47-.284 1.31 1.31 0 0 1-.314-.425 1.203 1.203 0 0 1 0-1.003 1.31 1.31 0 0 1 .314-.425c.135-.122.295-.219.47-.284.176-.066.364-.1.554-.1h8.55c.299 0 .59.083.834.238.245.155.43.374.531.628.102.253.115.529.037.789-.078.26-.242.492-.47.664l-7.339 5.53c-.26.196-.588.304-.926.304Z" />
  <path fill="#8227B7"
    d="M18.023 20.897c-2.607 0-4.286-.62-5.43-2.009a1.26 1.26 0 0 1-.243-.461 1.188 1.188 0 0 1-.03-.51 1.23 1.23 0 0 1 .188-.482c.097-.148.226-.277.378-.38a1.563 1.563 0 0 1 1.074-.247c.38.05.722.233.952.512.412.496 1.071.957 3.111.957.372 0 .74-.066 1.084-.195.343-.129.655-.317.918-.555.263-.238.471-.52.613-.831.143-.31.216-.644.216-.98 0-.336-.073-.67-.216-.98a2.562 2.562 0 0 0-.613-.831 2.866 2.866 0 0 0-.918-.555 3.09 3.09 0 0 0-1.084-.195h-3.056c-.384 0-.752-.138-1.024-.384a1.25 1.25 0 0 1-.424-.927c0-.347.153-.68.424-.926.272-.246.64-.384 1.024-.384h3.056a6.258 6.258 0 0 1 2.21.38 5.81 5.81 0 0 1 1.877 1.12 5.185 5.185 0 0 1 1.256 1.687c.291.632.441 1.31.441 1.995 0 .684-.15 1.362-.441 1.994a5.185 5.185 0 0 1-1.256 1.688 5.81 5.81 0 0 1-1.878 1.12 6.258 6.258 0 0 1-2.209.379Z" />
</svg>