<svg id="Layer_1" xmlns="http://www.w3.org/2000/svg" viewBox="0 0 22 17"><defs><style>.cls-1{fill:#68738d}</style></defs><path class="cls-1" d="M20.35 3.6v.03h-.01C19.73 2.46 18.8 1.42 17.63.8c-2.32-1.26-5.45-.62-7.16 1.36-.94 1.03-1.44 2.17-1.51 3.55 0 .39-.03.86.08 1.25v.03c.5 1.26 2.41 1.2 2.8-.14s0-.03 0-.04c2.29-5.86 9.01-.38 1.47 5.42-.25.18-.47.41-.64.66-1.28 2.03 1.27 4.62 3.42 2.9 2.09-1.67 3.96-3.83 4.68-6.43.04-.13.06-.2.08-.28 0 0 .08-.29.12-.5.35-1.68.13-3.43-.63-4.97Z"/><path class="cls-1" d="M9.99 1.77H10l.05-.05C7.21-1.05 2.36-.27.67 3.37A7.977 7.977 0 0 0 0 6.85c-.02.65.09 1.29.34 1.89.86 2.61 2.97 4.63 5.35 5.9.64.33 1.24-.48.82-1.02l-.23-.3c-.9-1.25-1.8-2.6-2.3-4.04-1.55-3.86 2.27-7 4.4-3.36 0-.38.03-.78.1-1.14v-.03C8.7 3.63 9.23 2.6 10 1.76Z"/></svg>